<?xml version="1.0" encoding="UTF-8" standalone="no"?>
<!-- Created with Inkscape (http://www.inkscape.org/) -->

<svg
   width="237.6084mm"
   height="56.186695mm"
   viewBox="0 0 237.60839 56.186696"
   version="1.1"
   id="svg887"
   inkscape:version="1.2.2 (732a01da63, 2022-12-09)"
   sodipodi:docname="FUS_logo_text_icon_ms_v7.svg"
   xmlns:inkscape="http://www.inkscape.org/namespaces/inkscape"
   xmlns:sodipodi="http://sodipodi.sourceforge.net/DTD/sodipodi-0.dtd"
   xmlns="http://www.w3.org/2000/svg"
   xmlns:svg="http://www.w3.org/2000/svg">
  <sodipodi:namedview
     id="namedview889"
     pagecolor="#ffffff"
     bordercolor="#666666"
     borderopacity="1.0"
     inkscape:pageshadow="2"
     inkscape:pageopacity="0.0"
     inkscape:pagecheckerboard="0"
     inkscape:document-units="mm"
     showgrid="false"
     inkscape:zoom="1.4681257"
     inkscape:cx="540.14449"
     inkscape:cy="196.84963"
     inkscape:window-width="3440"
     inkscape:window-height="1377"
     inkscape:window-x="-8"
     inkscape:window-y="-8"
     inkscape:window-maximized="1"
     inkscape:current-layer="text910"
     fit-margin-top="0"
     fit-margin-left="0"
     fit-margin-right="0"
     fit-margin-bottom="0"
     width="237.6084mm"
     inkscape:showpageshadow="2"
     inkscape:deskcolor="#d1d1d1" />
  <defs
     id="defs884" />
  <g
     inkscape:label="Layer 1"
     inkscape:groupmode="layer"
     id="layer1"
     transform="translate(-47.797905,-124.87426)">
    <g
       id="g19345"
       transform="matrix(6.0858032,0,0,6.0858032,-180.0342,105.90684)"
       style="stroke-width:0.351267">
      <g
         id="g906"
         transform="matrix(0.25651085,0,0,0.25651085,37.575054,-54.17209)"
         style="stroke-width:1.3694">
        <path
           d="m 18.472209,242.37794 a 4.4780001,4.4780001 0 0 0 -0.02842,-0.0873 4.4780001,4.4780001 0 0 0 -0.02997,-0.0863 4.4780001,4.4780001 0 0 0 -0.03204,-0.0858 4.4780001,4.4780001 0 0 0 -0.03359,-0.0853 4.4780001,4.4780001 0 0 0 -0.03514,-0.0847 4.4780001,4.4780001 0 0 0 -0.03669,-0.0837 4.4780001,4.4780001 0 0 0 -0.03876,-0.0827 4.4780001,4.4780001 0 0 0 -0.04031,-0.0822 4.4780001,4.4780001 0 0 0 -0.04238,-0.0811 4.4780001,4.4780001 0 0 0 -0.04341,-0.0806 4.4780001,4.4780001 0 0 0 -0.04548,-0.0796 4.4780001,4.4780001 0 0 0 -0.04703,-0.0786 4.4780001,4.4780001 0 0 0 -0.04858,-0.0775 4.4780001,4.4780001 0 0 0 -0.05013,-0.0765 4.4780001,4.4780001 0 0 0 -0.05168,-0.0754 4.4780001,4.4780001 0 0 0 -0.05323,-0.0749 4.4780001,4.4780001 0 0 0 -0.05478,-0.0734 4.4780001,4.4780001 0 0 0 -0.05581,-0.0718 4.4780001,4.4780001 0 0 0 -0.05788,-0.0713 4.4780001,4.4780001 0 0 0 -0.05891,-0.0698 4.4780001,4.4780001 0 0 0 -0.06046,-0.0687 4.4780001,4.4780001 0 0 0 -0.06201,-0.0672 4.4780001,4.4780001 0 0 0 -0.06356,-0.0662 4.4780001,4.4780001 0 0 0 -0.06459,-0.0651 4.4780001,4.4780001 0 0 0 -0.06563,-0.0636 4.4780001,4.4780001 0 0 0 -0.06718,-0.062 4.4780001,4.4780001 0 0 0 -0.06873,-0.0605 4.4780001,4.4780001 0 0 0 -0.06976,-0.0594 4.4780001,4.4780001 0 0 0 -0.0708,-0.0579 4.4780001,4.4780001 0 0 0 -0.07183,-0.0563 4.4780001,4.4780001 0 0 0 -0.07338,-0.0553 4.4780001,4.4780001 0 0 0 -0.07441,-0.0532 4.4780001,4.4780001 0 0 0 -0.07545,-0.0522 4.4780001,4.4780001 0 0 0 -0.07648,-0.0501 4.4780001,4.4780001 0 0 0 -0.07752,-0.0486 4.4780001,4.4780001 0 0 0 -0.07803,-0.0475 4.4780001,4.4780001 0 0 0 -0.07958,-0.0455 4.4780001,4.4780001 0 0 0 -0.0801,-0.0439 4.4780001,4.4780001 0 0 0 -0.08114,-0.0424 4.4780001,4.4780001 0 0 0 -0.08216,-0.0403 4.4780001,4.4780001 0 0 0 -0.08268,-0.0393 4.4780001,4.4780001 0 0 0 -0.08372,-0.0372 4.4780001,4.4780001 0 0 0 -0.08423,-0.0357 4.4780001,4.4780001 0 0 0 -0.08526,-0.0336 4.4780001,4.4780001 0 0 0 -0.08578,-0.032 4.4780001,4.4780001 0 0 0 -0.0863,-0.0305 4.4780001,4.4780001 0 0 0 -0.08682,-0.0284 4.4780001,4.4780001 0 0 0 -0.08785,-0.0269 4.4780001,4.4780001 0 0 0 -0.08785,-0.0248 4.4780001,4.4780001 0 0 0 -0.08889,-0.0233 4.4780001,4.4780001 0 0 0 -0.08888,-0.0212 4.4780001,4.4780001 0 0 0 -0.0894,-0.0196 4.4780001,4.4780001 0 0 0 -0.08992,-0.0176 4.4780001,4.4780001 0 0 0 -0.08992,-0.0155 4.4780001,4.4780001 0 0 0 -0.09043,-0.014 4.4780001,4.4780001 0 0 0 -0.09095,-0.0124 4.4780001,4.4780001 0 0 0 -0.09095,-0.0103 4.4780001,4.4780001 0 0 0 -0.09095,-0.008 4.4780001,4.4780001 0 0 0 -0.09147,-0.007 4.4780001,4.4780001 0 0 0 -0.09147,-0.005 4.4780001,4.4780001 0 0 0 -0.09147,-0.003 4.4780001,4.4780001 0 0 0 -0.09147,-10e-4 4.4780001,4.4780001 0 0 0 -0.07751,5.1e-4 4.4780001,4.4780001 0 0 0 -0.09147,0.003 4.4780001,4.4780001 0 0 0 -0.09147,0.005 4.4780001,4.4780001 0 0 0 -0.09147,0.006 4.4780001,4.4780001 0 0 0 -0.09095,0.008 4.4780001,4.4780001 0 0 0 -0.09095,0.01 4.4780001,4.4780001 0 0 0 -0.09095,0.0119 4.4780001,4.4780001 0 0 0 -0.09043,0.0134 4.4780001,4.4780001 0 0 0 -0.09043,0.0155 4.4780001,4.4780001 0 0 0 -0.0894,0.0176 4.4780001,4.4780001 0 0 0 -0.08992,0.0191 4.4780001,4.4780001 0 0 0 -0.08888,0.0212 4.4780001,4.4780001 0 0 0 -0.08888,0.0227 4.4780001,4.4780001 0 0 0 -0.08785,0.0248 4.4780001,4.4780001 0 0 0 -0.08785,0.0264 4.4780001,4.4780001 0 0 0 -0.08682,0.0284 4.4780001,4.4780001 0 0 0 -0.0863,0.03 4.4780001,4.4780001 0 0 0 -0.0863,0.0315 4.4780001,4.4780001 0 0 0 -0.01189,0.005 9.5438985,9.5438985 0 0 0 5.883363,2.84065 z"
           style="fill:#69b19b;fill-opacity:1;stroke:none;stroke-width:1.3694;stroke-linecap:round;stroke-opacity:0.6"
           id="path870" />
        <path
           d="m 14.186165,236.56507 a 7.1504997,7.1504997 0 0 0 -0.115755,0.002 7.1504997,7.1504997 0 0 0 -0.115755,0.003 7.1504997,7.1504997 0 0 0 -0.115756,0.005 7.1504997,7.1504997 0 0 0 -0.115239,0.007 7.1504997,7.1504997 0 0 0 -0.115237,0.009 7.1504997,7.1504997 0 0 0 -0.115239,0.0103 7.1504997,7.1504997 0 0 0 -0.115239,0.0124 7.1504997,7.1504997 0 0 0 -0.114721,0.0139 7.1504997,7.1504997 0 0 0 -0.114205,0.016 7.1504997,7.1504997 0 0 0 -0.11472,0.0181 7.1504997,7.1504997 0 0 0 -0.113689,0.0196 7.1504997,7.1504997 0 0 0 -0.113689,0.0217 7.1504997,7.1504997 0 0 0 -0.11317,0.0232 7.1504997,7.1504997 0 0 0 -0.113173,0.0253 7.1504997,7.1504997 0 0 0 -0.112138,0.0274 7.1504997,7.1504997 0 0 0 -0.112136,0.0289 7.1504997,7.1504997 0 0 0 -0.111622,0.0305 7.1504997,7.1504997 0 0 0 -0.110588,0.0325 7.1504997,7.1504997 0 0 0 -0.110588,0.0341 7.1504997,7.1504997 0 0 0 -0.110069,0.0362 7.1504997,7.1504997 0 0 0 -0.109038,0.0377 7.1504997,7.1504997 0 0 0 -0.109037,0.0398 7.1504997,7.1504997 0 0 0 -0.108006,0.0413 7.1504997,7.1504997 0 0 0 -0.106968,0.0429 7.1504997,7.1504997 0 0 0 -0.106971,0.045 7.1504997,7.1504997 0 0 0 -0.105937,0.0465 7.1504997,7.1504997 0 0 0 -0.104902,0.0486 7.1504997,7.1504997 0 0 0 -0.104389,0.0496 7.1504997,7.1504997 0 0 0 -0.0739,0.0372 9.5438985,9.5438985 0 0 0 0.914157,1.41542 5.4780002,5.4780002 0 0 1 0.04134,-0.0191 5.4780002,5.4780002 0 0 1 0.09302,-0.0408 5.4780002,5.4780002 0 0 1 0.09302,-0.0393 5.4780002,5.4780002 0 0 1 0.09405,-0.0372 5.4780002,5.4780002 0 0 1 0.09457,-0.0356 5.4780002,5.4780002 0 0 1 0.0956,-0.0341 5.4780002,5.4780002 0 0 1 0.09612,-0.032 5.4780002,5.4780002 0 0 1 0.09664,-0.0305 5.4780002,5.4780002 0 0 1 0.09715,-0.0284 5.4780002,5.4780002 0 0 1 0.09767,-0.0269 5.4780002,5.4780002 0 0 1 0.09767,-0.0253 5.4780002,5.4780002 0 0 1 0.0987,-0.0232 5.4780002,5.4780002 0 0 1 0.09922,-0.0212 5.4780002,5.4780002 0 0 1 0.09922,-0.0196 5.4780002,5.4780002 0 0 1 0.09973,-0.0176 5.4780002,5.4780002 0 0 1 0.09974,-0.0155 5.4780002,5.4780002 0 0 1 0.100251,-0.0145 5.4780002,5.4780002 0 0 1 0.100769,-0.0119 5.4780002,5.4780002 0 0 1 0.100769,-0.0103 5.4780002,5.4780002 0 0 1 0.100769,-0.008 5.4780002,5.4780002 0 0 1 0.10077,-0.007 5.4780002,5.4780002 0 0 1 0.101285,-0.005 5.4780002,5.4780002 0 0 1 0.101287,-0.003 5.4780002,5.4780002 0 0 1 0.10077,-0.001 5.4780002,5.4780002 0 0 1 0.101285,0.001 5.4780002,5.4780002 0 0 1 0.101285,0.003 5.4780002,5.4780002 0 0 1 0.101285,0.005 5.4780002,5.4780002 0 0 1 0.100769,0.007 5.4780002,5.4780002 0 0 1 0.100769,0.008 5.4780002,5.4780002 0 0 1 0.10077,0.0103 5.4780002,5.4780002 0 0 1 0.100769,0.0124 5.4780002,5.4780002 0 0 1 0.100253,0.0139 5.4780002,5.4780002 0 0 1 0.09973,0.0155 5.4780002,5.4780002 0 0 1 0.09973,0.0176 5.4780002,5.4780002 0 0 1 0.09922,0.0196 5.4780002,5.4780002 0 0 1 0.09922,0.0217 5.4780002,5.4780002 0 0 1 0.0987,0.0227 5.4780002,5.4780002 0 0 1 0.09767,0.0253 5.4780002,5.4780002 0 0 1 0.09767,0.0269 5.4780002,5.4780002 0 0 1 0.09715,0.0284 5.4780002,5.4780002 0 0 1 0.09663,0.0305 5.4780002,5.4780002 0 0 1 0.09612,0.032 5.4780002,5.4780002 0 0 1 0.09509,0.0341 5.4780002,5.4780002 0 0 1 0.09508,0.0356 5.4780002,5.4780002 0 0 1 0.09405,0.0372 5.4780002,5.4780002 0 0 1 0.09302,0.0393 5.4780002,5.4780002 0 0 1 0.09302,0.0408 5.4780002,5.4780002 0 0 1 0.09147,0.0429 5.4780002,5.4780002 0 0 1 0.09095,0.0439 5.4780002,5.4780002 0 0 1 0.09043,0.046 5.4780002,5.4780002 0 0 1 0.0894,0.0476 5.4780002,5.4780002 0 0 1 0.08837,0.0496 5.4780002,5.4780002 0 0 1 0.08733,0.0506 5.4780002,5.4780002 0 0 1 0.08682,0.0527 5.4780002,5.4780002 0 0 1 0.08526,0.0537 5.4780002,5.4780002 0 0 1 0.08475,0.0558 5.4780002,5.4780002 0 0 1 0.08372,0.0574 5.4780002,5.4780002 0 0 1 0.08217,0.0589 5.4780002,5.4780002 0 0 1 0.08165,0.0599 5.4780002,5.4780002 0 0 1 0.0801,0.062 5.4780002,5.4780002 0 0 1 0.07906,0.0631 5.4780002,5.4780002 0 0 1 0.07803,0.0646 5.4780002,5.4780002 0 0 1 0.07648,0.0662 5.4780002,5.4780002 0 0 1 0.07545,0.0677 5.4780002,5.4780002 0 0 1 0.0739,0.0687 5.4780002,5.4780002 0 0 1 0.07338,0.0703 5.4780002,5.4780002 0 0 1 0.07132,0.0718 5.4780002,5.4780002 0 0 1 0.07028,0.0729 5.4780002,5.4780002 0 0 1 0.06873,0.0739 5.4780002,5.4780002 0 0 1 0.0677,0.0754 5.4780002,5.4780002 0 0 1 0.06615,0.077 5.4780002,5.4780002 0 0 1 0.06459,0.0775 5.4780002,5.4780002 0 0 1 0.06305,0.0791 5.4780002,5.4780002 0 0 1 0.06201,0.0801 5.4780002,5.4780002 0 0 1 0.05995,0.0816 5.4780002,5.4780002 0 0 1 0.05891,0.0822 5.4780002,5.4780002 0 0 1 0.05736,0.0837 5.4780002,5.4780002 0 0 1 0.05581,0.0847 5.4780002,5.4780002 0 0 1 0.05374,0.0853 5.4780002,5.4780002 0 0 1 0.05271,0.0868 5.4780002,5.4780002 0 0 1 0.05064,0.0873 5.4780002,5.4780002 0 0 1 0.04961,0.0884 5.4780002,5.4780002 0 0 1 0.04754,0.0894 5.4780002,5.4780002 0 0 1 0.04599,0.0904 5.4780002,5.4780002 0 0 1 0.04393,0.0909 5.4780002,5.4780002 0 0 1 0.04289,0.092 5.4780002,5.4780002 0 0 1 0.04082,0.0925 5.4780002,5.4780002 0 0 1 0.03927,0.093 5.4780002,5.4780002 0 0 1 0.03721,0.0941 5.4780002,5.4780002 0 0 1 0.03566,0.0951 5.4780002,5.4780002 0 0 1 0.03411,0.0951 5.4780002,5.4780002 0 0 1 0.03204,0.0961 5.4780002,5.4780002 0 0 1 0.03049,0.0966 5.4780002,5.4780002 0 0 1 0.02842,0.0971 5.4780002,5.4780002 0 0 1 0.02687,0.0977 5.4780002,5.4780002 0 0 1 0.02481,0.0982 5.4780002,5.4780002 0 0 1 0.0031,0.0124 9.5438985,9.5438985 0 0 0 1.6769,-0.16588 7.1504997,7.1504997 0 0 0 -0.01034,-0.0486 7.1504997,7.1504997 0 0 0 -0.02532,-0.11265 7.1504997,7.1504997 0 0 0 -0.02687,-0.11266 7.1504997,7.1504997 0 0 0 -0.02894,-0.11213 7.1504997,7.1504997 0 0 0 -0.03049,-0.11111 7.1504997,7.1504997 0 0 0 -0.03256,-0.1111 7.1504997,7.1504997 0 0 0 -0.03462,-0.11059 7.1504997,7.1504997 0 0 0 -0.03566,-0.11007 7.1504997,7.1504997 0 0 0 -0.03824,-0.10904 7.1504997,7.1504997 0 0 0 -0.03928,-0.10852 7.1504997,7.1504997 0 0 0 -0.04134,-0.108 7.1504997,7.1504997 0 0 0 -0.04341,-0.10749 7.1504997,7.1504997 0 0 0 -0.04444,-0.10645 7.1504997,7.1504997 0 0 0 -0.04702,-0.10594 7.1504997,7.1504997 0 0 0 -0.04806,-0.10542 7.1504997,7.1504997 0 0 0 -0.05013,-0.10439 7.1504997,7.1504997 0 0 0 -0.05168,-0.10335 7.1504997,7.1504997 0 0 0 -0.05323,-0.10232 7.1504997,7.1504997 0 0 0 -0.05478,-0.1018 7.1504997,7.1504997 0 0 0 -0.05685,-0.10129 7.1504997,7.1504997 0 0 0 -0.05788,-0.0997 7.1504997,7.1504997 0 0 0 -0.05994,-0.0992 7.1504997,7.1504997 0 0 0 -0.06149,-0.0977 7.1504997,7.1504997 0 0 0 -0.06304,-0.0971 7.1504997,7.1504997 0 0 0 -0.0646,-0.0961 7.1504997,7.1504997 0 0 0 -0.06615,-0.0946 7.1504997,7.1504997 0 0 0 -0.06718,-0.0941 7.1504997,7.1504997 0 0 0 -0.06925,-0.0925 7.1504997,7.1504997 0 0 0 -0.0708,-0.0915 7.1504997,7.1504997 0 0 0 -0.07183,-0.0904 7.1504997,7.1504997 0 0 0 -0.0739,-0.0894 7.1504997,7.1504997 0 0 0 -0.07493,-0.0884 7.1504997,7.1504997 0 0 0 -0.07648,-0.0868 7.1504997,7.1504997 0 0 0 -0.07752,-0.0853 7.1504997,7.1504997 0 0 0 -0.07958,-0.0842 7.1504997,7.1504997 0 0 0 -0.0801,-0.0832 7.1504997,7.1504997 0 0 0 -0.08216,-0.0817 7.1504997,7.1504997 0 0 0 -0.0832,-0.0806 7.1504997,7.1504997 0 0 0 -0.08423,-0.0791 7.1504997,7.1504997 0 0 0 -0.08578,-0.0775 7.1504997,7.1504997 0 0 0 -0.08681,-0.076 7.1504997,7.1504997 0 0 0 -0.08837,-0.0749 7.1504997,7.1504997 0 0 0 -0.0894,-0.0734 7.1504997,7.1504997 0 0 0 -0.09043,-0.0724 7.1504997,7.1504997 0 0 0 -0.09199,-0.0703 7.1504997,7.1504997 0 0 0 -0.0925,-0.0687 7.1504997,7.1504997 0 0 0 -0.09405,-0.0677 7.1504997,7.1504997 0 0 0 -0.09508,-0.0656 7.1504997,7.1504997 0 0 0 -0.09612,-0.0646 7.1504997,7.1504997 0 0 0 -0.09715,-0.063 7.1504997,7.1504997 0 0 0 -0.09818,-0.061 7.1504997,7.1504997 0 0 0 -0.0987,-0.0599 7.1504997,7.1504997 0 0 0 -0.100253,-0.0579 7.1504997,7.1504997 0 0 0 -0.100769,-0.0563 7.1504997,7.1504997 0 0 0 -0.10232,-0.0548 7.1504997,7.1504997 0 0 0 -0.102317,-0.0532 7.1504997,7.1504997 0 0 0 -0.10387,-0.0512 7.1504997,7.1504997 0 0 0 -0.104386,-0.0501 7.1504997,7.1504997 0 0 0 -0.104905,-0.0481 7.1504997,7.1504997 0 0 0 -0.106452,-0.0465 7.1504997,7.1504997 0 0 0 -0.106455,-0.0444 7.1504997,7.1504997 0 0 0 -0.107487,-0.0429 7.1504997,7.1504997 0 0 0 -0.108003,-0.0413 7.1504997,7.1504997 0 0 0 -0.108522,-0.0393 7.1504997,7.1504997 0 0 0 -0.109553,-0.0377 7.1504997,7.1504997 0 0 0 -0.110069,-0.0357 7.1504997,7.1504997 0 0 0 -0.110588,-0.0341 7.1504997,7.1504997 0 0 0 -0.111104,-0.0326 7.1504997,7.1504997 0 0 0 -0.111106,-0.0305 7.1504997,7.1504997 0 0 0 -0.112136,-0.0284 7.1504997,7.1504997 0 0 0 -0.112657,-0.0269 7.1504997,7.1504997 0 0 0 -0.11317,-0.0253 7.1504997,7.1504997 0 0 0 -0.113171,-0.0232 7.1504997,7.1504997 0 0 0 -0.113688,-0.0212 7.1504997,7.1504997 0 0 0 -0.113689,-0.0196 7.1504997,7.1504997 0 0 0 -0.114205,-0.0176 7.1504997,7.1504997 0 0 0 -0.114721,-0.016 7.1504997,7.1504997 0 0 0 -0.114723,-0.014 7.1504997,7.1504997 0 0 0 -0.115237,-0.0119 7.1504997,7.1504997 0 0 0 -0.115239,-0.0103 7.1504997,7.1504997 0 0 0 -0.115239,-0.009 7.1504997,7.1504997 0 0 0 -0.115755,-0.006 7.1504997,7.1504997 0 0 0 -0.115237,-0.005 7.1504997,7.1504997 0 0 0 -0.115755,-0.003 7.1504997,7.1504997 0 0 0 -0.115755,-10e-4 7.1504997,7.1504997 0 0 0 -0.0124,0 z"
           style="fill:#69b19b;fill-opacity:1;stroke:none;stroke-width:1.3694;stroke-linecap:round;stroke-opacity:0.6"
           id="path872" />
        <path
           d="m 14.165496,233.69207 a 9.9905004,9.9905017 0 0 0 -0.107487,5.2e-4 9.9905004,9.9905017 0 0 0 -0.136943,0.003 9.9905004,9.9905017 0 0 0 -0.136427,0.004 9.9905004,9.9905017 0 0 0 -0.136943,0.006 9.9905004,9.9905017 0 0 0 -0.136425,0.008 9.9905004,9.9905017 0 0 0 -0.136427,0.01 9.9905004,9.9905017 0 0 0 -0.135909,0.0114 9.9905004,9.9905017 0 0 0 -0.135908,0.014 9.9905004,9.9905017 0 0 0 -0.135909,0.0155 9.9905004,9.9905017 0 0 0 -0.135908,0.017 9.9905004,9.9905017 0 0 0 -0.135393,0.0191 9.9905004,9.9905017 0 0 0 -0.134876,0.0212 9.9905004,9.9905017 0 0 0 -0.134874,0.0227 9.9905004,9.9905017 0 0 0 -0.134361,0.0248 9.9905004,9.9905017 0 0 0 -0.134358,0.0264 9.9905004,9.9905017 0 0 0 -0.133324,0.0284 9.9905004,9.9905017 0 0 0 -0.133326,0.0305 9.9905004,9.9905017 0 0 0 -0.133326,0.032 9.9905004,9.9905017 0 0 0 -0.132292,0.0336 9.9905004,9.9905017 0 0 0 -0.131773,0.0357 9.9905004,9.9905017 0 0 0 -0.131775,0.0377 9.9905004,9.9905017 0 0 0 -0.130742,0.0393 9.9905004,9.9905017 0 0 0 -0.130741,0.0408 9.9905004,9.9905017 0 0 0 -0.129709,0.0429 9.9905004,9.9905017 0 0 0 -0.129191,0.045 9.9905004,9.9905017 0 0 0 -0.128675,0.046 9.9905004,9.9905017 0 0 0 -0.12764,0.0481 9.9905004,9.9905017 0 0 0 -0.12764,0.0501 9.9905004,9.9905017 0 0 0 -0.126609,0.0517 9.9905004,9.9905017 0 0 0 -0.125571,0.0532 9.9905004,9.9905017 0 0 0 -0.125058,0.0553 9.9905004,9.9905017 0 0 0 -0.04238,0.0191 9.5438985,9.5438985 0 0 0 0.527101,1.83555 8.1504993,8.1504993 0 0 1 0.09147,-0.045 8.1504993,8.1504993 0 0 1 0.111623,-0.0527 8.1504993,8.1504993 0 0 1 0.112138,-0.0512 8.1504993,8.1504993 0 0 1 0.11317,-0.0496 8.1504993,8.1504993 0 0 1 0.114205,-0.0475 8.1504993,8.1504993 0 0 1 0.114723,-0.046 8.1504993,8.1504993 0 0 1 0.115237,-0.0444 8.1504993,8.1504993 0 0 1 0.115755,-0.0424 8.1504993,8.1504993 0 0 1 0.11679,-0.0408 8.1504993,8.1504993 0 0 1 0.116787,-0.0388 8.1504993,8.1504993 0 0 1 0.117824,-0.0372 8.1504993,8.1504993 0 0 1 0.118338,-0.0351 8.1504993,8.1504993 0 0 1 0.118856,-0.0336 8.1504993,8.1504993 0 0 1 0.119372,-0.032 8.1504993,8.1504993 0 0 1 0.11989,-0.03 8.1504993,8.1504993 0 0 1 0.120407,-0.0279 8.1504993,8.1504993 0 0 1 0.120407,-0.0264 8.1504993,8.1504993 0 0 1 0.120922,-0.0248 8.1504993,8.1504993 0 0 1 0.121439,-0.0222 8.1504993,8.1504993 0 0 1 0.121957,-0.0212 8.1504993,8.1504993 0 0 1 0.121957,-0.0186 8.1504993,8.1504993 0 0 1 0.121954,-0.0176 8.1504993,8.1504993 0 0 1 0.122992,-0.015 8.1504993,8.1504993 0 0 1 0.122473,-0.0134 8.1504993,8.1504993 0 0 1 0.122989,-0.0114 8.1504993,8.1504993 0 0 1 0.122988,-0.01 8.1504993,8.1504993 0 0 1 0.123508,-0.008 8.1504993,8.1504993 0 0 1 0.122991,-0.006 8.1504993,8.1504993 0 0 1 0.123505,-0.004 8.1504993,8.1504993 0 0 1 0.123508,-0.002 8.1504993,8.1504993 0 0 1 0.08372,-5.2e-4 8.1504993,8.1504993 0 0 1 0.123505,10e-4 8.1504993,8.1504993 0 0 1 0.123507,0.003 8.1504993,8.1504993 0 0 1 0.123507,0.005 8.1504993,8.1504993 0 0 1 0.122989,0.006 8.1504993,8.1504993 0 0 1 0.123508,0.009 8.1504993,8.1504993 0 0 1 0.122989,0.01 8.1504993,8.1504993 0 0 1 0.122989,0.0124 8.1504993,8.1504993 0 0 1 0.122475,0.014 8.1504993,8.1504993 0 0 1 0.122473,0.016 8.1504993,8.1504993 0 0 1 0.122473,0.0176 8.1504993,8.1504993 0 0 1 0.121955,0.0196 8.1504993,8.1504993 0 0 1 0.121441,0.0212 8.1504993,8.1504993 0 0 1 0.121438,0.0233 8.1504993,8.1504993 0 0 1 0.120923,0.0253 8.1504993,8.1504993 0 0 1 0.120406,0.0269 8.1504993,8.1504993 0 0 1 0.119891,0.0284 8.1504993,8.1504993 0 0 1 0.119888,0.031 8.1504993,8.1504993 0 0 1 0.118856,0.032 8.1504993,8.1504993 0 0 1 0.118856,0.0341 8.1504993,8.1504993 0 0 1 0.118338,0.0362 8.1504993,8.1504993 0 0 1 0.117305,0.0377 8.1504993,8.1504993 0 0 1 0.117306,0.0393 8.1504993,8.1504993 0 0 1 0.116274,0.0413 8.1504993,8.1504993 0 0 1 0.115755,0.0434 8.1504993,8.1504993 0 0 1 0.114721,0.0445 8.1504993,8.1504993 0 0 1 0.114721,0.0465 8.1504993,8.1504993 0 0 1 0.113688,0.0486 8.1504993,8.1504993 0 0 1 0.112655,0.0496 8.1504993,8.1504993 0 0 1 0.112138,0.0517 8.1504993,8.1504993 0 0 1 0.111622,0.0537 8.1504993,8.1504993 0 0 1 0.110586,0.0548 8.1504993,8.1504993 0 0 1 0.109556,0.0568 8.1504993,8.1504993 0 0 1 0.108518,0.0584 8.1504993,8.1504993 0 0 1 0.108006,0.0599 8.1504993,8.1504993 0 0 1 0.106968,0.0615 8.1504993,8.1504993 0 0 1 0.106456,0.0636 8.1504993,8.1504993 0 0 1 0.104902,0.0646 8.1504993,8.1504993 0 0 1 0.10387,0.0667 8.1504993,8.1504993 0 0 1 0.103354,0.0677 8.1504993,8.1504993 0 0 1 0.101801,0.0698 8.1504993,8.1504993 0 0 1 0.101285,0.0713 8.1504993,8.1504993 0 0 1 0.09974,0.0723 8.1504993,8.1504993 0 0 1 0.0987,0.0744 8.1504993,8.1504993 0 0 1 0.09767,0.0755 8.1504993,8.1504993 0 0 1 0.09612,0.077 8.1504993,8.1504993 0 0 1 0.0956,0.0786 8.1504993,8.1504993 0 0 1 0.09405,0.0801 8.1504993,8.1504993 0 0 1 0.09302,0.0811 8.1504993,8.1504993 0 0 1 0.09147,0.0832 8.1504993,8.1504993 0 0 1 0.09043,0.0842 8.1504993,8.1504993 0 0 1 0.08888,0.0853 8.1504993,8.1504993 0 0 1 0.08785,0.0868 8.1504993,8.1504993 0 0 1 0.0863,0.0884 8.1504993,8.1504993 0 0 1 0.08526,0.0894 8.1504993,8.1504993 0 0 1 0.08372,0.0909 8.1504993,8.1504993 0 0 1 0.08216,0.092 8.1504993,8.1504993 0 0 1 0.08113,0.093 8.1504993,8.1504993 0 0 1 0.07959,0.0946 8.1504993,8.1504993 0 0 1 0.07803,0.0956 8.1504993,8.1504993 0 0 1 0.07648,0.0966 8.1504993,8.1504993 0 0 1 0.07545,0.0982 8.1504993,8.1504993 0 0 1 0.07338,0.0992 8.1504993,8.1504993 0 0 1 0.07235,0.10025 8.1504993,8.1504993 0 0 1 0.07028,0.10128 8.1504993,8.1504993 0 0 1 0.06925,0.10232 8.1504993,8.1504993 0 0 1 0.0677,0.10335 8.1504993,8.1504993 0 0 1 0.06563,0.10439 8.1504993,8.1504993 0 0 1 0.0646,0.10542 8.1504993,8.1504993 0 0 1 0.06253,0.10645 8.1504993,8.1504993 0 0 1 0.06097,0.10698 8.1504993,8.1504993 0 0 1 0.05995,0.10851 8.1504993,8.1504993 0 0 1 0.05736,0.10904 8.1504993,8.1504993 0 0 1 0.05633,0.11007 8.1504993,8.1504993 0 0 1 0.05478,0.11059 8.1504993,8.1504993 0 0 1 0.05271,0.11162 8.1504993,8.1504993 0 0 1 0.05116,0.11266 8.1504993,8.1504993 0 0 1 0.04909,0.11317 8.1504993,8.1504993 0 0 1 0.04806,0.11369 8.1504993,8.1504993 0 0 1 0.04599,0.11472 8.1504993,8.1504993 0 0 1 0.04393,0.11524 8.1504993,8.1504993 0 0 1 0.04289,0.11575 8.1504993,8.1504993 0 0 1 0.04031,0.11679 8.1504993,8.1504993 0 0 1 0.03927,0.1173 8.1504993,8.1504993 0 0 1 0.03721,0.11783 8.1504993,8.1504993 0 0 1 0.03514,0.11782 8.1504993,8.1504993 0 0 1 0.03359,0.11886 8.1504993,8.1504993 0 0 1 0.03204,0.11937 8.1504993,8.1504993 0 0 1 0.02997,0.11989 8.1504993,8.1504993 0 0 1 0.02791,0.1204 8.1504993,8.1504993 0 0 1 0.02274,0.10439 9.5438985,9.5438985 0 0 0 1.702736,-0.69608 9.9905004,9.9905017 0 0 0 -0.0124,-0.0517 9.9905004,9.9905017 0 0 0 -0.03411,-0.13281 9.9905004,9.9905017 0 0 0 -0.03565,-0.13177 9.9905004,9.9905017 0 0 0 -0.03721,-0.13178 9.9905004,9.9905017 0 0 0 -0.03927,-0.13074 9.9905004,9.9905017 0 0 0 -0.04134,-0.13022 9.9905004,9.9905017 0 0 0 -0.04289,-0.13023 9.9905004,9.9905017 0 0 0 -0.04444,-0.12919 9.9905004,9.9905017 0 0 0 -0.04651,-0.12816 9.9905004,9.9905017 0 0 0 -0.04806,-0.12815 9.9905004,9.9905017 0 0 0 -0.04961,-0.12713 9.9905004,9.9905017 0 0 0 -0.05168,-0.1266 9.9905004,9.9905017 0 0 0 -0.05374,-0.12609 9.9905004,9.9905017 0 0 0 -0.05478,-0.12506 9.9905004,9.9905017 0 0 0 -0.05684,-0.12454 9.9905004,9.9905017 0 0 0 -0.05839,-0.12351 9.9905004,9.9905017 0 0 0 -0.05994,-0.12299 9.9905004,9.9905017 0 0 0 -0.06201,-0.12196 9.9905004,9.9905017 0 0 0 -0.06356,-0.12092 9.9905004,9.9905017 0 0 0 -0.06511,-0.11989 9.9905004,9.9905017 0 0 0 -0.06666,-0.11937 9.9905004,9.9905017 0 0 0 -0.06821,-0.11834 9.9905004,9.9905017 0 0 0 -0.07028,-0.11782 9.9905004,9.9905017 0 0 0 -0.07183,-0.11627 9.9905004,9.9905017 0 0 0 -0.07286,-0.11524 9.9905004,9.9905017 0 0 0 -0.07493,-0.11472 9.9905004,9.9905017 0 0 0 -0.07648,-0.11317 9.9905004,9.9905017 0 0 0 -0.07751,-0.11266 9.9905004,9.9905017 0 0 0 -0.07958,-0.1111 9.9905004,9.9905017 0 0 0 -0.08113,-0.11007 9.9905004,9.9905017 0 0 0 -0.08216,-0.10956 9.9905004,9.9905017 0 0 0 -0.08372,-0.10748 9.9905004,9.9905017 0 0 0 -0.08578,-0.10698 9.9905004,9.9905017 0 0 0 -0.08682,-0.10542 9.9905004,9.9905017 0 0 0 -0.08785,-0.10438 9.9905004,9.9905017 0 0 0 -0.08992,-0.10335 9.9905004,9.9905017 0 0 0 -0.09095,-0.10181 9.9905004,9.9905017 0 0 0 -0.0925,-0.10077 9.9905004,9.9905017 0 0 0 -0.09405,-0.0997 9.9905004,9.9905017 0 0 0 -0.09508,-0.0982 9.9905004,9.9905017 0 0 0 -0.09664,-0.0966 9.9905004,9.9905017 0 0 0 -0.09767,-0.0956 9.9905004,9.9905017 0 0 0 -0.09922,-0.0941 9.9905004,9.9905017 0 0 0 -0.10025,-0.0925 9.9905004,9.9905017 0 0 0 -0.101804,-0.0915 9.9905004,9.9905017 0 0 0 -0.102836,-0.0899 9.9905004,9.9905017 0 0 0 -0.104386,-0.0889 9.9905004,9.9905017 0 0 0 -0.10542,-0.0868 9.9905004,9.9905017 0 0 0 -0.106453,-0.0858 9.9905004,9.9905017 0 0 0 -0.107487,-0.0842 9.9905004,9.9905017 0 0 0 -0.109037,-0.0827 9.9905004,9.9905017 0 0 0 -0.110072,-0.0811 9.9905004,9.9905017 0 0 0 -0.111104,-0.0801 9.9905004,9.9905017 0 0 0 -0.112138,-0.078 9.9905004,9.9905017 0 0 0 -0.11317,-0.0765 9.9905004,9.9905017 0 0 0 -0.114205,-0.0755 9.9905004,9.9905017 0 0 0 -0.11524,-0.0734 9.9905004,9.9905017 0 0 0 -0.116271,-0.0718 9.9905004,9.9905017 0 0 0 -0.116789,-0.0703 9.9905004,9.9905017 0 0 0 -0.118341,-0.0687 9.9905004,9.9905017 0 0 0 -0.119372,-0.0672 9.9905004,9.9905017 0 0 0 -0.119888,-0.0656 9.9905004,9.9905017 0 0 0 -0.120922,-0.0641 9.9905004,9.9905017 0 0 0 -0.121441,-0.062 9.9905004,9.9905017 0 0 0 -0.122989,-0.0605 9.9905004,9.9905017 0 0 0 -0.122992,-0.0589 9.9905004,9.9905017 0 0 0 -0.124539,-0.0568 9.9905004,9.9905017 0 0 0 -0.125058,-0.0558 9.9905004,9.9905017 0 0 0 -0.125571,-0.0532 9.9905004,9.9905017 0 0 0 -0.126609,-0.0522 9.9905004,9.9905017 0 0 0 -0.127124,-0.0501 9.9905004,9.9905017 0 0 0 -0.12764,-0.0486 9.9905004,9.9905017 0 0 0 -0.128675,-0.047 9.9905004,9.9905017 0 0 0 -0.129191,-0.045 9.9905004,9.9905017 0 0 0 -0.129707,-0.0429 9.9905004,9.9905017 0 0 0 -0.130225,-0.0413 9.9905004,9.9905017 0 0 0 -0.130741,-0.0398 9.9905004,9.9905017 0 0 0 -0.13126,-0.0377 9.9905004,9.9905017 0 0 0 -0.131773,-0.0362 9.9905004,9.9905017 0 0 0 -0.132292,-0.0341 9.9905004,9.9905017 0 0 0 -0.13281,-0.0325 9.9905004,9.9905017 0 0 0 -0.133323,-0.0305 9.9905004,9.9905017 0 0 0 -0.133843,-0.0289 9.9905004,9.9905017 0 0 0 -0.133842,-0.0269 9.9905004,9.9905017 0 0 0 -0.134358,-0.0253 9.9905004,9.9905017 0 0 0 -0.134876,-0.0233 9.9905004,9.9905017 0 0 0 -0.134874,-0.0212 9.9905004,9.9905017 0 0 0 -0.135393,-0.0196 9.9905004,9.9905017 0 0 0 -0.135393,-0.0181 9.9905004,9.9905017 0 0 0 -0.135908,-0.0155 9.9905004,9.9905017 0 0 0 -0.135911,-0.014 9.9905004,9.9905017 0 0 0 -0.136425,-0.0124 9.9905004,9.9905017 0 0 0 -0.136427,-0.0103 9.9905004,9.9905017 0 0 0 -0.136424,-0.008 9.9905004,9.9905017 0 0 0 -0.136427,-0.007 9.9905004,9.9905017 0 0 0 -0.136425,-0.005 9.9905004,9.9905017 0 0 0 -0.136943,-0.003 9.9905004,9.9905017 0 0 0 -0.136424,-10e-4 z"
           style="fill:#69b19b;fill-opacity:1;stroke:none;stroke-width:1.3694;stroke-linecap:round;stroke-opacity:0.6"
           id="path874" />
        <path
           d="m 19.402902,223.33853 a 9.5438985,9.5438985 0 0 0 -9.5182826,9.54412 9.5438985,9.5438985 0 0 0 0.02325,0.66766 10.990501,10.990502 0 0 1 0.0124,-0.005 10.990501,10.990502 0 0 1 0.1328096,-0.0543 10.990501,10.990502 0 0 1 0.133324,-0.0527 10.990501,10.990502 0 0 1 0.133842,-0.0512 10.990501,10.990502 0 0 1 0.134876,-0.0491 10.990501,10.990502 0 0 1 0.134874,-0.0475 10.990501,10.990502 0 0 1 0.135911,-0.046 10.990501,10.990502 0 0 1 0.136425,-0.0439 10.990501,10.990502 0 0 1 0.137459,-0.0424 10.990501,10.990502 0 0 1 0.137459,-0.0403 10.990501,10.990502 0 0 1 0.137977,-0.0388 10.990501,10.990502 0 0 1 0.138494,-0.0367 10.990501,10.990502 0 0 1 0.139009,-0.0351 10.990501,10.990502 0 0 1 0.139526,-0.0331 10.990501,10.990502 0 0 1 0.140044,-0.031 10.990501,10.990502 0 0 1 0.14056,-0.03 10.990501,10.990502 0 0 1 0.140559,-0.0274 10.990501,10.990502 0 0 1 0.141076,-0.0258 10.990501,10.990502 0 0 1 0.141076,-0.0243 10.990501,10.990502 0 0 1 0.14211,-0.0217 10.990501,10.990502 0 0 1 0.141595,-0.0207 10.990501,10.990502 0 0 1 0.14211,-0.0186 10.990501,10.990502 0 0 1 0.142627,-0.0165 10.990501,10.990502 0 0 1 0.142626,-0.0145 10.990501,10.990502 0 0 1 0.142629,-0.0129 10.990501,10.990502 0 0 1 0.143142,-0.0109 10.990501,10.990502 0 0 1 0.143145,-0.009 10.990501,10.990502 0 0 1 0.143142,-0.007 10.990501,10.990502 0 0 1 0.143145,-0.006 10.990501,10.990502 0 0 1 0.143661,-0.004 10.990501,10.990502 0 0 1 0.143142,-0.002 10.990501,10.990502 0 0 1 0.05685,0 10.990501,10.990502 0 0 1 0.143142,0.001 10.990501,10.990502 0 0 1 0.143145,0.003 10.990501,10.990502 0 0 1 0.143661,0.005 10.990501,10.990502 0 0 1 0.143142,0.007 10.990501,10.990502 0 0 1 0.143145,0.008 10.990501,10.990502 0 0 1 0.143142,0.0103 10.990501,10.990502 0 0 1 0.142629,0.0124 10.990501,10.990502 0 0 1 0.142626,0.014 10.990501,10.990502 0 0 1 0.142626,0.0155 10.990501,10.990502 0 0 1 0.142627,0.0181 10.990501,10.990502 0 0 1 0.141594,0.0196 10.990501,10.990502 0 0 1 0.142111,0.0212 10.990501,10.990502 0 0 1 0.141591,0.0232 10.990501,10.990502 0 0 1 0.141079,0.0253 10.990501,10.990502 0 0 1 0.14056,0.0269 10.990501,10.990502 0 0 1 0.14056,0.0289 10.990501,10.990502 0 0 1 0.140041,0.0305 10.990501,10.990502 0 0 1 0.140044,0.0326 10.990501,10.990502 0 0 1 0.139009,0.0341 10.990501,10.990502 0 0 1 0.13901,0.0362 10.990501,10.990502 0 0 1 0.137977,0.0377 10.990501,10.990502 0 0 1 0.137975,0.0398 10.990501,10.990502 0 0 1 0.136943,0.0413 10.990501,10.990502 0 0 1 0.136943,0.0434 10.990501,10.990502 0 0 1 0.135909,0.045 10.990501,10.990502 0 0 1 0.135908,0.047 10.990501,10.990502 0 0 1 0.134877,0.0486 10.990501,10.990502 0 0 1 0.133842,0.0501 10.990501,10.990502 0 0 1 0.133842,0.0522 10.990501,10.990502 0 0 1 0.132808,0.0537 10.990501,10.990502 0 0 1 0.132291,0.0558 10.990501,10.990502 0 0 1 0.131258,0.0574 10.990501,10.990502 0 0 1 0.130741,0.0589 10.990501,10.990502 0 0 1 0.130225,0.0605 10.990501,10.990502 0 0 1 0.129191,0.0625 10.990501,10.990502 0 0 1 0.128159,0.0641 10.990501,10.990502 0 0 1 0.127124,0.0656 10.990501,10.990502 0 0 1 0.126606,0.0677 10.990501,10.990502 0 0 1 0.12609,0.0687 10.990501,10.990502 0 0 1 0.124542,0.0708 10.990501,10.990502 0 0 1 0.124023,0.0724 10.990501,10.990502 0 0 1 0.122473,0.0739 10.990501,10.990502 0 0 1 0.121957,0.0754 10.990501,10.990502 0 0 1 0.120923,0.077 10.990501,10.990502 0 0 1 0.119888,0.0786 10.990501,10.990502 0 0 1 0.118856,0.0806 10.990501,10.990502 0 0 1 0.117821,0.0816 10.990501,10.990502 0 0 1 0.11679,0.0832 10.990501,10.990502 0 0 1 0.115755,0.0847 10.990501,10.990502 0 0 1 0.114205,0.0863 10.990501,10.990502 0 0 1 0.113689,0.0879 10.990501,10.990502 0 0 1 0.112136,0.0894 10.990501,10.990502 0 0 1 0.111106,0.0904 10.990501,10.990502 0 0 1 0.110069,0.0925 10.990501,10.990502 0 0 1 0.108522,0.0935 10.990501,10.990502 0 0 1 0.107487,0.0951 10.990501,10.990502 0 0 1 0.105936,0.0961 10.990501,10.990502 0 0 1 0.104902,0.0977 10.990501,10.990502 0 0 1 0.10387,0.0992 10.990501,10.990502 0 0 1 0.10232,0.10077 10.990501,10.990502 0 0 1 0.100769,0.1018 10.990501,10.990502 0 0 1 0.09974,0.10284 10.990501,10.990502 0 0 1 0.09819,0.10438 10.990501,10.990502 0 0 1 0.09715,0.10594 10.990501,10.990502 0 0 1 0.0956,0.10646 10.990501,10.990502 0 0 1 0.09405,0.10851 10.990501,10.990502 0 0 1 0.0925,0.10904 10.990501,10.990502 0 0 1 0.09147,0.11059 10.990501,10.990502 0 0 1 0.08992,0.11214 10.990501,10.990502 0 0 1 0.08837,0.11265 10.990501,10.990502 0 0 1 0.08682,0.11421 10.990501,10.990502 0 0 1 0.08526,0.11524 10.990501,10.990502 0 0 1 0.08372,0.11627 10.990501,10.990502 0 0 1 0.08268,0.1173 10.990501,10.990502 0 0 1 0.08062,0.11834 10.990501,10.990502 0 0 1 0.07958,0.11989 10.990501,10.990502 0 0 1 0.07751,0.12041 10.990501,10.990502 0 0 1 0.07597,0.12144 10.990501,10.990502 0 0 1 0.07441,0.12247 10.990501,10.990502 0 0 1 0.07338,0.12351 10.990501,10.990502 0 0 1 0.07131,0.12454 10.990501,10.990502 0 0 1 0.06925,0.12505 10.990501,10.990502 0 0 1 0.06821,0.12609 10.990501,10.990502 0 0 1 0.06666,0.12713 10.990501,10.990502 0 0 1 0.0646,0.12816 10.990501,10.990502 0 0 1 0.06305,0.12867 10.990501,10.990502 0 0 1 0.0615,0.12971 10.990501,10.990502 0 0 1 0.05943,0.13022 10.990501,10.990502 0 0 1 0.05788,0.13126 10.990501,10.990502 0 0 1 0.05633,0.13178 10.990501,10.990502 0 0 1 0.05478,0.1328 10.990501,10.990502 0 0 1 0.05271,0.13333 10.990501,10.990502 0 0 1 0.05064,0.13384 10.990501,10.990502 0 0 1 0.04961,0.13488 10.990501,10.990502 0 0 1 0.04754,0.13539 10.990501,10.990502 0 0 1 0.04548,0.13591 10.990501,10.990502 0 0 1 0.04392,0.13643 10.990501,10.990502 0 0 1 0.04238,0.13694 10.990501,10.990502 0 0 1 0.04031,0.13746 10.990501,10.990502 0 0 1 0.03824,0.13694 9.5438985,9.5438985 0 0 0 4.20388,-7.90908 9.5438985,9.5438985 0 0 0 -9.544122,-9.54412 9.5438985,9.5438985 0 0 0 -0.02532,0 z"
           style="fill:#69b19b;fill-opacity:1;stroke:none;stroke-width:1.3694;stroke-linecap:round;stroke-opacity:0.6"
           id="path876" />
        <path
           d="m 12.377489,254.55439 a 7.2052888,7.2052888 0 0 0 6.783565,4.77646 7.2052888,7.2052888 0 0 0 7.205247,-7.20525 7.2052888,7.2052888 0 0 0 -1.799373,-4.76353 10.9905,10.9905 0 0 1 -0.0041,0.0114 10.9905,10.9905 0 0 1 -0.04857,0.13487 10.9905,10.9905 0 0 1 -0.05013,0.13385 10.9905,10.9905 0 0 1 -0.05219,0.13384 10.9905,10.9905 0 0 1 -0.05375,0.13281 10.9905,10.9905 0 0 1 -0.05581,0.13229 10.9905,10.9905 0 0 1 -0.05736,0.13126 10.9905,10.9905 0 0 1 -0.05891,0.13074 10.9905,10.9905 0 0 1 -0.06046,0.13022 10.9905,10.9905 0 0 1 -0.06253,0.12868 10.9905,10.9905 0 0 1 -0.06408,0.12867 10.9905,10.9905 0 0 1 -0.06563,0.12712 10.9905,10.9905 0 0 1 -0.06769,0.12661 10.9905,10.9905 0 0 1 -0.06873,0.12558 10.9905,10.9905 0 0 1 -0.0708,0.12505 10.9905,10.9905 0 0 1 -0.07235,0.12403 10.9905,10.9905 0 0 1 -0.0739,0.12247 10.9905,10.9905 0 0 1 -0.07545,0.12196 10.9905,10.9905 0 0 1 -0.077,0.12092 10.9905,10.9905 0 0 1 -0.07855,0.11989 10.9905,10.9905 0 0 1 -0.08062,0.11885 10.9905,10.9905 0 0 1 -0.08165,0.11783 10.9905,10.9905 0 0 1 -0.0832,0.11679 10.9905,10.9905 0 0 1 -0.08475,0.11575 10.9905,10.9905 0 0 1 -0.0863,0.11421 10.9905,10.9905 0 0 1 -0.08785,0.11368 10.9905,10.9905 0 0 1 -0.0894,0.11214 10.9905,10.9905 0 0 1 -0.09043,0.1111 10.9905,10.9905 0 0 1 -0.0925,0.10956 10.9905,10.9905 0 0 1 -0.09353,0.10904 10.9905,10.9905 0 0 1 -0.09509,0.10748 10.9905,10.9905 0 0 1 -0.09612,0.10594 10.9905,10.9905 0 0 1 -0.09767,0.1049 10.9905,10.9905 0 0 1 -0.09922,0.10387 10.9905,10.9905 0 0 1 -0.100253,0.10232 10.9905,10.9905 0 0 1 -0.101801,0.10077 10.9905,10.9905 0 0 1 -0.103355,0.0997 10.9905,10.9905 0 0 1 -0.104386,0.0982 10.9905,10.9905 0 0 1 -0.10542,0.0971 10.9905,10.9905 0 0 1 -0.106969,0.0951 10.9905,10.9905 0 0 1 -0.108521,0.0946 10.9905,10.9905 0 0 1 -0.109038,0.0925 10.9905,10.9905 0 0 1 -0.110587,0.0915 10.9905,10.9905 0 0 1 -0.112136,0.0899 10.9905,10.9905 0 0 1 -0.112657,0.0884 10.9905,10.9905 0 0 1 -0.114205,0.0868 10.9905,10.9905 0 0 1 -0.115236,0.0853 10.9905,10.9905 0 0 1 -0.116274,0.0837 10.9905,10.9905 0 0 1 -0.117306,0.0827 10.9905,10.9905 0 0 1 -0.118337,0.0806 10.9905,10.9905 0 0 1 -0.119373,0.0791 10.9905,10.9905 0 0 1 -0.120922,0.078 10.9905,10.9905 0 0 1 -0.121441,0.076 10.9905,10.9905 0 0 1 -0.122473,0.0744 10.9905,10.9905 0 0 1 -0.123508,0.0734 10.9905,10.9905 0 0 1 -0.124023,0.0713 10.9905,10.9905 0 0 1 -0.125574,0.0693 10.9905,10.9905 0 0 1 -0.12609,0.0682 10.9905,10.9905 0 0 1 -0.127124,0.0667 10.9905,10.9905 0 0 1 -0.128156,0.0646 10.9905,10.9905 0 0 1 -0.128675,0.063 10.9905,10.9905 0 0 1 -0.129707,0.0615 10.9905,10.9905 0 0 1 -0.130225,0.0594 10.9905,10.9905 0 0 1 -0.13126,0.0579 10.9905,10.9905 0 0 1 -0.131773,0.0563 10.9905,10.9905 0 0 1 -0.13281,0.0543 10.9905,10.9905 0 0 1 -0.133324,0.0532 10.9905,10.9905 0 0 1 -0.133842,0.0506 10.9905,10.9905 0 0 1 -0.134877,0.0496 10.9905,10.9905 0 0 1 -0.135392,0.0475 10.9905,10.9905 0 0 1 -0.13539,0.0455 10.9905,10.9905 0 0 1 -0.136943,0.0439 10.9905,10.9905 0 0 1 -0.136943,0.0424 10.9905,10.9905 0 0 1 -0.137459,0.0403 10.9905,10.9905 0 0 1 -0.137978,0.0388 10.9905,10.9905 0 0 1 -0.138491,0.0367 10.9905,10.9905 0 0 1 -0.139528,0.0351 10.9905,10.9905 0 0 1 -0.139525,0.0331 10.9905,10.9905 0 0 1 -0.139528,0.0315 10.9905,10.9905 0 0 1 -0.140557,0.0295 10.9905,10.9905 0 0 1 -0.140563,0.0274 10.9905,10.9905 0 0 1 -0.141076,0.0264 10.9905,10.9905 0 0 1 -0.141591,0.0238 10.9905,10.9905 0 0 1 -0.141595,0.0222 10.9905,10.9905 0 0 1 -0.141594,0.0202 10.9905,10.9905 0 0 1 -0.142626,0.0186 10.9905,10.9905 0 0 1 -0.142111,0.0165 10.9905,10.9905 0 0 1 -0.142626,0.015 10.9905,10.9905 0 0 1 -0.143145,0.0124 10.9905,10.9905 0 0 1 -0.142626,0.0114 10.9905,10.9905 0 0 1 -0.143145,0.009 10.9905,10.9905 0 0 1 -0.143142,0.008 10.9905,10.9905 0 0 1 -0.143661,0.005 10.9905,10.9905 0 0 1 -0.143145,0.004 10.9905,10.9905 0 0 1 -0.143142,0.002 10.9905,10.9905 0 0 1 -0.05684,0 10.9905,10.9905 0 0 1 -0.143145,-5.1e-4 10.9905,10.9905 0 0 1 -0.143661,-0.003 10.9905,10.9905 0 0 1 -0.143142,-0.005 10.9905,10.9905 0 0 1 -0.143145,-0.007 10.9905,10.9905 0 0 1 -0.143145,-0.008 10.9905,10.9905 0 0 1 -0.143142,-0.0103 10.9905,10.9905 0 0 1 -0.142627,-0.0119 10.9905,10.9905 0 0 1 -0.143144,-0.0139 10.9905,10.9905 0 0 1 -0.142111,-0.016 10.9905,10.9905 0 0 1 -0.142626,-0.0176 10.9905,10.9905 0 0 1 -0.14211,-0.0196 10.9905,10.9905 0 0 1 -0.141595,-0.0217 10.9905,10.9905 0 0 1 -0.107487,-0.0176 z"
           style="fill:#69b19b;fill-opacity:1;stroke:none;stroke-width:1.36939;stroke-linecap:round;stroke-opacity:0.6"
           id="path878" />
        <path
           d="m 11.978032,251.55853 a 7.2052888,7.2052888 0 0 0 -0.02222,0.56741 7.2052888,7.2052888 0 0 0 0.128674,1.35444 9.9905004,9.9905004 0 0 0 0.07803,0.0165 9.9905004,9.9905004 0 0 0 0.133842,0.0274 9.9905004,9.9905004 0 0 0 0.134358,0.0248 9.9905004,9.9905004 0 0 0 0.134877,0.0233 9.9905004,9.9905004 0 0 0 0.134877,0.0217 9.9905004,9.9905004 0 0 0 0.135392,0.0196 9.9905004,9.9905004 0 0 0 0.13539,0.0176 9.9905004,9.9905004 0 0 0 0.135911,0.016 9.9905004,9.9905004 0 0 0 0.135909,0.0139 9.9905004,9.9905004 0 0 0 0.136424,0.0119 9.9905004,9.9905004 0 0 0 0.135909,0.0103 9.9905004,9.9905004 0 0 0 0.136943,0.008 9.9905004,9.9905004 0 0 0 0.136427,0.007 9.9905004,9.9905004 0 0 0 0.136425,0.005 9.9905004,9.9905004 0 0 0 0.136943,0.003 9.9905004,9.9905004 0 0 0 0.136427,5.2e-4 9.9905004,9.9905004 0 0 0 0.107487,-5.2e-4 9.9905004,9.9905004 0 0 0 0.13694,-0.002 9.9905004,9.9905004 0 0 0 0.136427,-0.005 9.9905004,9.9905004 0 0 0 0.136425,-0.006 9.9905004,9.9905004 0 0 0 0.136943,-0.008 9.9905004,9.9905004 0 0 0 0.135908,-0.01 9.9905004,9.9905004 0 0 0 0.136427,-0.0119 9.9905004,9.9905004 0 0 0 0.135909,-0.0134 9.9905004,9.9905004 0 0 0 0.135908,-0.0155 9.9905004,9.9905004 0 0 0 0.135909,-0.0176 9.9905004,9.9905004 0 0 0 0.134876,-0.0191 9.9905004,9.9905004 0 0 0 0.135393,-0.0212 9.9905004,9.9905004 0 0 0 0.134874,-0.0227 9.9905004,9.9905004 0 0 0 0.134361,-0.0248 9.9905004,9.9905004 0 0 0 0.133842,-0.0264 9.9905004,9.9905004 0 0 0 0.133842,-0.0284 9.9905004,9.9905004 0 0 0 0.133324,-0.0305 9.9905004,9.9905004 0 0 0 0.13281,-0.032 9.9905004,9.9905004 0 0 0 0.132807,-0.0336 9.9905004,9.9905004 0 0 0 0.131776,-0.0357 9.9905004,9.9905004 0 0 0 0.131773,-0.0377 9.9905004,9.9905004 0 0 0 0.130741,-0.0393 9.9905004,9.9905004 0 0 0 0.130226,-0.0408 9.9905004,9.9905004 0 0 0 0.130225,-0.0429 9.9905004,9.9905004 0 0 0 0.129191,-0.0444 9.9905004,9.9905004 0 0 0 0.128674,-0.0465 9.9905004,9.9905004 0 0 0 0.127641,-0.0481 9.9905004,9.9905004 0 0 0 0.127124,-0.0501 9.9905004,9.9905004 0 0 0 0.126606,-0.0512 9.9905004,9.9905004 0 0 0 0.126092,-0.0537 9.9905004,9.9905004 0 0 0 0.125056,-0.0548 9.9905004,9.9905004 0 0 0 0.124542,-0.0568 9.9905004,9.9905004 0 0 0 0.123505,-0.0584 9.9905004,9.9905004 0 0 0 0.122991,-0.0599 9.9905004,9.9905004 0 0 0 0.121955,-0.062 9.9905004,9.9905004 0 0 0 0.120922,-0.0636 9.9905004,9.9905004 0 0 0 0.120407,-0.0651 9.9905004,9.9905004 0 0 0 0.118856,-0.0667 9.9905004,9.9905004 0 0 0 0.11834,-0.0687 9.9905004,9.9905004 0 0 0 0.117822,-0.0698 9.9905004,9.9905004 0 0 0 0.116271,-0.0718 9.9905004,9.9905004 0 0 0 0.115755,-0.0729 9.9905004,9.9905004 0 0 0 0.114205,-0.0749 9.9905004,9.9905004 0 0 0 0.113172,-0.0765 9.9905004,9.9905004 0 0 0 0.112655,-0.0775 9.9905004,9.9905004 0 0 0 0.111104,-0.0796 9.9905004,9.9905004 0 0 0 0.110588,-0.0811 9.9905004,9.9905004 0 0 0 0.109037,-0.0822 9.9905004,9.9905004 0 0 0 0.107487,-0.0837 9.9905004,9.9905004 0 0 0 0.106971,-0.0858 9.9905004,9.9905004 0 0 0 0.105418,-0.0868 9.9905004,9.9905004 0 0 0 0.104386,-0.0879 9.9905004,9.9905004 0 0 0 0.103354,-0.0899 9.9905004,9.9905004 0 0 0 0.101804,-0.091 9.9905004,9.9905004 0 0 0 0.100766,-0.0925 9.9905004,9.9905004 0 0 0 0.09974,-0.094 9.9905004,9.9905004 0 0 0 0.09818,-0.0951 9.9905004,9.9905004 0 0 0 0.09664,-0.0966 9.9905004,9.9905004 0 0 0 0.0956,-0.0977 9.9905004,9.9905004 0 0 0 0.09405,-0.0992 9.9905004,9.9905004 0 0 0 0.0925,-0.10026 9.9905004,9.9905004 0 0 0 0.09147,-0.1018 9.9905004,9.9905004 0 0 0 0.08992,-0.10283 9.9905004,9.9905004 0 0 0 0.08888,-0.10439 9.9905004,9.9905004 0 0 0 0.08682,-0.10542 9.9905004,9.9905004 0 0 0 0.08578,-0.10646 9.9905004,9.9905004 0 0 0 0.08423,-0.10748 9.9905004,9.9905004 0 0 0 0.08268,-0.10904 9.9905004,9.9905004 0 0 0 0.08113,-0.11007 9.9905004,9.9905004 0 0 0 0.0801,-0.1111 9.9905004,9.9905004 0 0 0 0.07803,-0.11214 9.9905004,9.9905004 0 0 0 0.07648,-0.11317 9.9905004,9.9905004 0 0 0 0.07545,-0.11421 9.9905004,9.9905004 0 0 0 0.07338,-0.11524 9.9905004,9.9905004 0 0 0 0.07183,-0.11627 9.9905004,9.9905004 0 0 0 0.07028,-0.1173 9.9905004,9.9905004 0 0 0 0.06873,-0.11783 9.9905004,9.9905004 0 0 0 0.06718,-0.11937 9.9905004,9.9905004 0 0 0 0.06563,-0.11989 9.9905004,9.9905004 0 0 0 0.06408,-0.12092 9.9905004,9.9905004 0 0 0 0.06201,-0.12144 9.9905004,9.9905004 0 0 0 0.06046,-0.12299 9.9905004,9.9905004 0 0 0 0.05891,-0.12351 9.9905004,9.9905004 0 0 0 0.05685,-0.12402 9.9905004,9.9905004 0 0 0 0.05581,-0.12506 9.9905004,9.9905004 0 0 0 0.05375,-0.12557 9.9905004,9.9905004 0 0 0 0.05167,-0.12661 9.9905004,9.9905004 0 0 0 0.05013,-0.12712 9.9905004,9.9905004 0 0 0 0.04858,-0.12764 9.9905004,9.9905004 0 0 0 0.04703,-0.12868 9.9905004,9.9905004 0 0 0 0.04496,-0.12919 9.9905004,9.9905004 0 0 0 0.04289,-0.12971 9.9905004,9.9905004 0 0 0 0.04134,-0.13022 9.9905004,9.9905004 0 0 0 0.02842,-0.0925 7.2052888,7.2052888 0 0 0 -1.630908,-1.02216 8.1504993,8.1504993 0 0 1 -0.02635,0.10903 8.1504993,8.1504993 0 0 1 -0.03049,0.11938 8.1504993,8.1504993 0 0 1 -0.03204,0.11937 8.1504993,8.1504993 0 0 1 -0.03462,0.11834 8.1504993,8.1504993 0 0 1 -0.03566,0.11834 8.1504993,8.1504993 0 0 1 -0.03772,0.1173 8.1504993,8.1504993 0 0 1 -0.03979,0.11731 8.1504993,8.1504993 0 0 1 -0.04134,0.11627 8.1504993,8.1504993 0 0 1 -0.04289,0.11576 8.1504993,8.1504993 0 0 1 -0.04496,0.11524 8.1504993,8.1504993 0 0 1 -0.04651,0.1142 8.1504993,8.1504993 0 0 1 -0.04806,0.11369 8.1504993,8.1504993 0 0 1 -0.05013,0.11265 8.1504993,8.1504993 0 0 1 -0.05168,0.11266 8.1504993,8.1504993 0 0 1 -0.05323,0.1111 8.1504993,8.1504993 0 0 1 -0.05478,0.11059 8.1504993,8.1504993 0 0 1 -0.05685,0.10955 8.1504993,8.1504993 0 0 1 -0.05839,0.10904 8.1504993,8.1504993 0 0 1 -0.05994,0.108 8.1504993,8.1504993 0 0 1 -0.06201,0.10697 8.1504993,8.1504993 0 0 1 -0.06305,0.10594 8.1504993,8.1504993 0 0 1 -0.06511,0.10491 8.1504993,8.1504993 0 0 1 -0.06614,0.10438 8.1504993,8.1504993 0 0 1 -0.06821,0.10284 8.1504993,8.1504993 0 0 1 -0.06925,0.1018 8.1504993,8.1504993 0 0 1 -0.07131,0.10129 8.1504993,8.1504993 0 0 1 -0.07235,0.0997 8.1504993,8.1504993 0 0 1 -0.07441,0.0987 8.1504993,8.1504993 0 0 1 -0.07545,0.0977 8.1504993,8.1504993 0 0 1 -0.077,0.0966 8.1504993,8.1504993 0 0 1 -0.07855,0.0951 8.1504993,8.1504993 0 0 1 -0.0801,0.0941 8.1504993,8.1504993 0 0 1 -0.08165,0.093 8.1504993,8.1504993 0 0 1 -0.08268,0.0915 8.1504993,8.1504993 0 0 1 -0.08423,0.0904 8.1504993,8.1504993 0 0 1 -0.08526,0.0889 8.1504993,8.1504993 0 0 1 -0.08682,0.0879 8.1504993,8.1504993 0 0 1 -0.08836,0.0868 8.1504993,8.1504993 0 0 1 -0.0894,0.0848 8.1504993,8.1504993 0 0 1 -0.09095,0.0837 8.1504993,8.1504993 0 0 1 -0.09198,0.0827 8.1504993,8.1504993 0 0 1 -0.09302,0.0806 8.1504993,8.1504993 0 0 1 -0.09457,0.0796 8.1504993,8.1504993 0 0 1 -0.0956,0.078 8.1504993,8.1504993 0 0 1 -0.09715,0.0765 8.1504993,8.1504993 0 0 1 -0.09767,0.0754 8.1504993,8.1504993 0 0 1 -0.09922,0.0734 8.1504993,8.1504993 0 0 1 -0.10025,0.0724 8.1504993,8.1504993 0 0 1 -0.101288,0.0708 8.1504993,8.1504993 0 0 1 -0.102317,0.0687 8.1504993,8.1504993 0 0 1 -0.103354,0.0677 8.1504993,8.1504993 0 0 1 -0.104386,0.0656 8.1504993,8.1504993 0 0 1 -0.105421,0.0646 8.1504993,8.1504993 0 0 1 -0.106452,0.0625 8.1504993,8.1504993 0 0 1 -0.107487,0.0615 8.1504993,8.1504993 0 0 1 -0.108006,0.0594 8.1504993,8.1504993 0 0 1 -0.109035,0.0579 8.1504993,8.1504993 0 0 1 -0.110072,0.0558 8.1504993,8.1504993 0 0 1 -0.110588,0.0548 8.1504993,8.1504993 0 0 1 -0.111619,0.0527 8.1504993,8.1504993 0 0 1 -0.112657,0.0512 8.1504993,8.1504993 0 0 1 -0.11317,0.0496 8.1504993,8.1504993 0 0 1 -0.113689,0.0475 8.1504993,8.1504993 0 0 1 -0.114721,0.046 8.1504993,8.1504993 0 0 1 -0.115239,0.0444 8.1504993,8.1504993 0 0 1 -0.116271,0.0424 8.1504993,8.1504993 0 0 1 -0.116272,0.0408 8.1504993,8.1504993 0 0 1 -0.117305,0.0388 8.1504993,8.1504993 0 0 1 -0.117824,0.0372 8.1504993,8.1504993 0 0 1 -0.118338,0.0351 8.1504993,8.1504993 0 0 1 -0.118856,0.0336 8.1504993,8.1504993 0 0 1 -0.119372,0.032 8.1504993,8.1504993 0 0 1 -0.119372,0.03 8.1504993,8.1504993 0 0 1 -0.120407,0.0279 8.1504993,8.1504993 0 0 1 -0.120922,0.0264 8.1504993,8.1504993 0 0 1 -0.120925,0.0248 8.1504993,8.1504993 0 0 1 -0.121439,0.0222 8.1504993,8.1504993 0 0 1 -0.121438,0.0212 8.1504993,8.1504993 0 0 1 -0.121957,0.0186 8.1504993,8.1504993 0 0 1 -0.122473,0.0176 8.1504993,8.1504993 0 0 1 -0.122473,0.015 8.1504993,8.1504993 0 0 1 -0.122992,0.0134 8.1504993,8.1504993 0 0 1 -0.122989,0.0114 8.1504993,8.1504993 0 0 1 -0.122989,0.01 8.1504993,8.1504993 0 0 1 -0.122991,0.008 8.1504993,8.1504993 0 0 1 -0.123505,0.006 8.1504993,8.1504993 0 0 1 -0.123508,0.004 8.1504993,8.1504993 0 0 1 -0.123507,0.002 8.1504993,8.1504993 0 0 1 -0.08371,5.1e-4 8.1504993,8.1504993 0 0 1 -0.123508,-0.001 8.1504993,8.1504993 0 0 1 -0.123507,-0.003 8.1504993,8.1504993 0 0 1 -0.122989,-0.005 8.1504993,8.1504993 0 0 1 -0.123508,-0.006 8.1504993,8.1504993 0 0 1 -0.122989,-0.009 8.1504993,8.1504993 0 0 1 -0.123507,-0.01 8.1504993,8.1504993 0 0 1 -0.122473,-0.0124 8.1504993,8.1504993 0 0 1 -0.122989,-0.0139 8.1504993,8.1504993 0 0 1 -0.122473,-0.016 8.1504993,8.1504993 0 0 1 -0.121957,-0.0176 8.1504993,8.1504993 0 0 1 -0.121957,-0.0196 8.1504993,8.1504993 0 0 1 -0.121957,-0.0212 8.1504993,8.1504993 0 0 1 -0.120923,-0.0232 8.1504993,8.1504993 0 0 1 -0.120922,-0.0253 8.1504993,8.1504993 0 0 1 -0.120407,-0.0269 8.1504993,8.1504993 0 0 1 -0.120406,-0.0284 8.1504993,8.1504993 0 0 1 -0.119372,-0.031 8.1504993,8.1504993 0 0 1 -0.119372,-0.032 8.1504993,8.1504993 0 0 1 -0.02532,-0.007 z"
           style="fill:#69b19b;fill-opacity:1;stroke:none;stroke-width:1.36939;stroke-linecap:round;stroke-opacity:0.6"
           id="path880" />
        <path
           d="m 12.679281,248.9794 a 7.2052888,7.2052888 0 0 0 -0.551389,1.58078 7.1504997,7.1504997 0 0 0 0.01809,0.006 7.1504997,7.1504997 0 0 0 0.111106,0.0326 7.1504997,7.1504997 0 0 0 0.11162,0.0305 7.1504997,7.1504997 0 0 0 0.112138,0.0284 7.1504997,7.1504997 0 0 0 0.112139,0.0269 7.1504997,7.1504997 0 0 0 0.11317,0.0253 7.1504997,7.1504997 0 0 0 0.113173,0.0232 7.1504997,7.1504997 0 0 0 0.113686,0.0212 7.1504997,7.1504997 0 0 0 0.114205,0.0196 7.1504997,7.1504997 0 0 0 0.114205,0.0176 7.1504997,7.1504997 0 0 0 0.114723,0.016 7.1504997,7.1504997 0 0 0 0.114721,0.0139 7.1504997,7.1504997 0 0 0 0.11472,0.0119 7.1504997,7.1504997 0 0 0 0.115239,0.0103 7.1504997,7.1504997 0 0 0 0.115756,0.009 7.1504997,7.1504997 0 0 0 0.115239,0.006 7.1504997,7.1504997 0 0 0 0.115755,0.005 7.1504997,7.1504997 0 0 0 0.115239,0.003 7.1504997,7.1504997 0 0 0 0.115756,0.001 7.1504997,7.1504997 0 0 0 0.01292,0 7.1504997,7.1504997 0 0 0 0.115755,-0.002 7.1504997,7.1504997 0 0 0 0.115239,-0.003 7.1504997,7.1504997 0 0 0 0.115755,-0.005 7.1504997,7.1504997 0 0 0 0.11524,-0.007 7.1504997,7.1504997 0 0 0 0.115755,-0.009 7.1504997,7.1504997 0 0 0 0.115236,-0.0103 7.1504997,7.1504997 0 0 0 0.114724,-0.0124 7.1504997,7.1504997 0 0 0 0.11472,-0.014 7.1504997,7.1504997 0 0 0 0.114724,-0.016 7.1504997,7.1504997 0 0 0 0.114204,-0.0181 7.1504997,7.1504997 0 0 0 0.114205,-0.0196 7.1504997,7.1504997 0 0 0 0.11317,-0.0217 7.1504997,7.1504997 0 0 0 0.113689,-0.0232 7.1504997,7.1504997 0 0 0 0.112655,-0.0253 7.1504997,7.1504997 0 0 0 0.112654,-0.0274 7.1504997,7.1504997 0 0 0 0.111622,-0.0289 7.1504997,7.1504997 0 0 0 0.11162,-0.0305 7.1504997,7.1504997 0 0 0 0.111104,-0.0326 7.1504997,7.1504997 0 0 0 0.110588,-0.0341 7.1504997,7.1504997 0 0 0 0.109553,-0.0362 7.1504997,7.1504997 0 0 0 0.109556,-0.0377 7.1504997,7.1504997 0 0 0 0.108519,-0.0398 7.1504997,7.1504997 0 0 0 0.108006,-0.0413 7.1504997,7.1504997 0 0 0 0.107487,-0.0429 7.1504997,7.1504997 0 0 0 0.106452,-0.045 7.1504997,7.1504997 0 0 0 0.105937,-0.0465 7.1504997,7.1504997 0 0 0 0.104904,-0.0486 7.1504997,7.1504997 0 0 0 0.104386,-0.0496 7.1504997,7.1504997 0 0 0 0.103868,-0.0517 7.1504997,7.1504997 0 0 0 0.102319,-0.0532 7.1504997,7.1504997 0 0 0 0.101804,-0.0553 7.1504997,7.1504997 0 0 0 0.100769,-0.0563 7.1504997,7.1504997 0 0 0 0.100251,-0.0584 7.1504997,7.1504997 0 0 0 0.0987,-0.0599 7.1504997,7.1504997 0 0 0 0.09819,-0.0615 7.1504997,7.1504997 0 0 0 0.09715,-0.0625 7.1504997,7.1504997 0 0 0 0.0956,-0.0646 7.1504997,7.1504997 0 0 0 0.09509,-0.0661 7.1504997,7.1504997 0 0 0 0.09405,-0.0677 7.1504997,7.1504997 0 0 0 0.0925,-0.0693 7.1504997,7.1504997 0 0 0 0.09147,-0.0708 7.1504997,7.1504997 0 0 0 0.09043,-0.0718 7.1504997,7.1504997 0 0 0 0.0894,-0.0734 7.1504997,7.1504997 0 0 0 0.08785,-0.0755 7.1504997,7.1504997 0 0 0 0.08682,-0.076 7.1504997,7.1504997 0 0 0 0.08578,-0.078 7.1504997,7.1504997 0 0 0 0.08423,-0.0791 7.1504997,7.1504997 0 0 0 0.0832,-0.0806 7.1504997,7.1504997 0 0 0 0.08165,-0.0816 7.1504997,7.1504997 0 0 0 0.0801,-0.0832 7.1504997,7.1504997 0 0 0 0.07907,-0.0847 7.1504997,7.1504997 0 0 0 0.07803,-0.0858 7.1504997,7.1504997 0 0 0 0.07596,-0.0868 7.1504997,7.1504997 0 0 0 0.07493,-0.0884 7.1504997,7.1504997 0 0 0 0.07338,-0.0894 7.1504997,7.1504997 0 0 0 0.07183,-0.0904 7.1504997,7.1504997 0 0 0 0.0708,-0.0915 7.1504997,7.1504997 0 0 0 0.06873,-0.093 7.1504997,7.1504997 0 0 0 0.0677,-0.0941 7.1504997,7.1504997 0 0 0 0.06563,-0.0951 7.1504997,7.1504997 0 0 0 0.06459,-0.0961 7.1504997,7.1504997 0 0 0 0.06253,-0.0971 7.1504997,7.1504997 0 0 0 0.06149,-0.0977 7.1504997,7.1504997 0 0 0 0.05943,-0.0992 7.1504997,7.1504997 0 0 0 0.05839,-0.10025 7.1504997,7.1504997 0 0 0 0.05633,-0.10077 7.1504997,7.1504997 0 0 0 0.05478,-0.1018 7.1504997,7.1504997 0 0 0 0.05323,-0.10284 7.1504997,7.1504997 0 0 0 0.05116,-0.10387 7.1504997,7.1504997 0 0 0 0.04961,-0.10438 7.1504997,7.1504997 0 0 0 0.04857,-0.1049 7.1504997,7.1504997 0 0 0 0.04599,-0.10594 7.1504997,7.1504997 0 0 0 0.04496,-0.10697 7.1504997,7.1504997 0 0 0 0.04289,-0.10749 7.1504997,7.1504997 0 0 0 0.04083,-0.108 7.1504997,7.1504997 0 0 0 0.03979,-0.10852 7.1504997,7.1504997 0 0 0 0.03772,-0.10956 7.1504997,7.1504997 0 0 0 0.03566,-0.11007 7.1504997,7.1504997 0 0 0 0.03411,-0.11007 7.1504997,7.1504997 0 0 0 0.03204,-0.1111 7.1504997,7.1504997 0 0 0 0.03049,-0.11162 7.1504997,7.1504997 0 0 0 0.02894,-0.11214 7.1504997,7.1504997 0 0 0 0.02687,-0.11266 7.1504997,7.1504997 0 0 0 0.02377,-0.10903 7.2052888,7.2052888 0 0 0 -1.650029,-0.28164 5.4780002,5.4780002 0 0 1 -0.02119,0.0889 5.4780002,5.4780002 0 0 1 -0.02481,0.0982 5.4780002,5.4780002 0 0 1 -0.02687,0.0977 5.4780002,5.4780002 0 0 1 -0.02842,0.0971 5.4780002,5.4780002 0 0 1 -0.03049,0.0961 5.4780002,5.4780002 0 0 1 -0.03204,0.0961 5.4780002,5.4780002 0 0 1 -0.03411,0.0956 5.4780002,5.4780002 0 0 1 -0.03566,0.0946 5.4780002,5.4780002 0 0 1 -0.03772,0.0941 5.4780002,5.4780002 0 0 1 -0.03876,0.0935 5.4780002,5.4780002 0 0 1 -0.04082,0.0925 5.4780002,5.4780002 0 0 1 -0.04289,0.092 5.4780002,5.4780002 0 0 1 -0.04444,0.0909 5.4780002,5.4780002 0 0 1 -0.04599,0.0899 5.4780002,5.4780002 0 0 1 -0.04754,0.0894 5.4780002,5.4780002 0 0 1 -0.04909,0.0884 5.4780002,5.4780002 0 0 1 -0.05064,0.0879 5.4780002,5.4780002 0 0 1 -0.05271,0.0863 5.4780002,5.4780002 0 0 1 -0.05426,0.0858 5.4780002,5.4780002 0 0 1 -0.05529,0.0842 5.4780002,5.4780002 0 0 1 -0.05736,0.0837 5.4780002,5.4780002 0 0 1 -0.05891,0.0827 5.4780002,5.4780002 0 0 1 -0.05995,0.0811 5.4780002,5.4780002 0 0 1 -0.06201,0.0801 5.4780002,5.4780002 0 0 1 -0.06305,0.0791 5.4780002,5.4780002 0 0 1 -0.06459,0.078 5.4780002,5.4780002 0 0 1 -0.06615,0.0765 5.4780002,5.4780002 0 0 1 -0.0677,0.0755 5.4780002,5.4780002 0 0 1 -0.06873,0.0744 5.4780002,5.4780002 0 0 1 -0.07028,0.0729 5.4780002,5.4780002 0 0 1 -0.07183,0.0713 5.4780002,5.4780002 0 0 1 -0.07286,0.0703 5.4780002,5.4780002 0 0 1 -0.0739,0.0692 5.4780002,5.4780002 0 0 1 -0.07545,0.0672 5.4780002,5.4780002 0 0 1 -0.077,0.0661 5.4780002,5.4780002 0 0 1 -0.07752,0.0646 5.4780002,5.4780002 0 0 1 -0.07906,0.0636 5.4780002,5.4780002 0 0 1 -0.08062,0.0615 5.4780002,5.4780002 0 0 1 -0.08113,0.0605 5.4780002,5.4780002 0 0 1 -0.08268,0.0584 5.4780002,5.4780002 0 0 1 -0.0832,0.0574 5.4780002,5.4780002 0 0 1 -0.08475,0.0558 5.4780002,5.4780002 0 0 1 -0.08578,0.0537 5.4780002,5.4780002 0 0 1 -0.0863,0.0527 5.4780002,5.4780002 0 0 1 -0.08733,0.0512 5.4780002,5.4780002 0 0 1 -0.08888,0.0491 5.4780002,5.4780002 0 0 1 -0.08888,0.0475 5.4780002,5.4780002 0 0 1 -0.09043,0.046 5.4780002,5.4780002 0 0 1 -0.09095,0.0444 5.4780002,5.4780002 0 0 1 -0.09198,0.0424 5.4780002,5.4780002 0 0 1 -0.0925,0.0408 5.4780002,5.4780002 0 0 1 -0.09354,0.0393 5.4780002,5.4780002 0 0 1 -0.09405,0.0372 5.4780002,5.4780002 0 0 1 -0.09457,0.0357 5.4780002,5.4780002 0 0 1 -0.0956,0.0341 5.4780002,5.4780002 0 0 1 -0.0956,0.032 5.4780002,5.4780002 0 0 1 -0.09663,0.0305 5.4780002,5.4780002 0 0 1 -0.09715,0.0289 5.4780002,5.4780002 0 0 1 -0.09767,0.0264 5.4780002,5.4780002 0 0 1 -0.09818,0.0253 5.4780002,5.4780002 0 0 1 -0.0987,0.0232 5.4780002,5.4780002 0 0 1 -0.0987,0.0212 5.4780002,5.4780002 0 0 1 -0.09922,0.0196 5.4780002,5.4780002 0 0 1 -0.09973,0.0176 5.4780002,5.4780002 0 0 1 -0.100253,0.016 5.4780002,5.4780002 0 0 1 -0.100251,0.0139 5.4780002,5.4780002 0 0 1 -0.100253,0.0119 5.4780002,5.4780002 0 0 1 -0.10077,0.0103 5.4780002,5.4780002 0 0 1 -0.100769,0.008 5.4780002,5.4780002 0 0 1 -0.101285,0.007 5.4780002,5.4780002 0 0 1 -0.101285,0.005 5.4780002,5.4780002 0 0 1 -0.100769,0.003 5.4780002,5.4780002 0 0 1 -0.101285,0.001 5.4780002,5.4780002 0 0 1 -0.101288,-0.001 5.4780002,5.4780002 0 0 1 -0.100769,-0.003 5.4780002,5.4780002 0 0 1 -0.101285,-0.005 5.4780002,5.4780002 0 0 1 -0.101286,-0.007 5.4780002,5.4780002 0 0 1 -0.100769,-0.008 5.4780002,5.4780002 0 0 1 -0.100769,-0.0103 5.4780002,5.4780002 0 0 1 -0.100253,-0.0119 5.4780002,5.4780002 0 0 1 -0.100251,-0.0145 5.4780002,5.4780002 0 0 1 -0.100253,-0.0155 5.4780002,5.4780002 0 0 1 -0.09974,-0.0176 5.4780002,5.4780002 0 0 1 -0.09922,-0.0196 5.4780002,5.4780002 0 0 1 -0.0987,-0.0217 5.4780002,5.4780002 0 0 1 -0.0987,-0.0227 5.4780002,5.4780002 0 0 1 -0.09819,-0.0253 5.4780002,5.4780002 0 0 1 -0.09767,-0.0269 5.4780002,5.4780002 0 0 1 -0.02015,-0.006 z"
           style="fill:#69b19b;fill-opacity:1;stroke:none;stroke-width:1.36939;stroke-linecap:round;stroke-opacity:0.6"
           id="path882" />
        <path
           d="m 13.198629,248.08111 a 4.4780001,4.4780001 0 0 0 0.0015,5.2e-4 4.4780001,4.4780001 0 0 0 0.0894,0.0196 4.4780001,4.4780001 0 0 0 0.08992,0.0176 4.4780001,4.4780001 0 0 0 0.09043,0.0155 4.4780001,4.4780001 0 0 0 0.09043,0.0139 4.4780001,4.4780001 0 0 0 0.09043,0.0124 4.4780001,4.4780001 0 0 0 0.09095,0.0103 4.4780001,4.4780001 0 0 0 0.09147,0.008 4.4780001,4.4780001 0 0 0 0.09095,0.007 4.4780001,4.4780001 0 0 0 0.09147,0.005 4.4780001,4.4780001 0 0 0 0.09147,0.003 4.4780001,4.4780001 0 0 0 0.09147,0.001 4.4780001,4.4780001 0 0 0 0.07803,-5.1e-4 4.4780001,4.4780001 0 0 0 0.09147,-0.003 4.4780001,4.4780001 0 0 0 0.09147,-0.005 4.4780001,4.4780001 0 0 0 0.09095,-0.006 4.4780001,4.4780001 0 0 0 0.09147,-0.008 4.4780001,4.4780001 0 0 0 0.09095,-0.01 4.4780001,4.4780001 0 0 0 0.09043,-0.0119 4.4780001,4.4780001 0 0 0 0.09095,-0.0134 4.4780001,4.4780001 0 0 0 0.08992,-0.0155 4.4780001,4.4780001 0 0 0 0.08992,-0.0176 4.4780001,4.4780001 0 0 0 0.0894,-0.0191 4.4780001,4.4780001 0 0 0 0.08888,-0.0212 4.4780001,4.4780001 0 0 0 0.08888,-0.0227 4.4780001,4.4780001 0 0 0 0.08837,-0.0248 4.4780001,4.4780001 0 0 0 0.08733,-0.0264 4.4780001,4.4780001 0 0 0 0.08733,-0.0284 4.4780001,4.4780001 0 0 0 0.0863,-0.03 4.4780001,4.4780001 0 0 0 0.08578,-0.0315 4.4780001,4.4780001 0 0 0 0.08526,-0.0336 4.4780001,4.4780001 0 0 0 0.08423,-0.0351 4.4780001,4.4780001 0 0 0 0.08372,-0.0372 4.4780001,4.4780001 0 0 0 0.0832,-0.0388 4.4780001,4.4780001 0 0 0 0.08217,-0.0403 4.4780001,4.4780001 0 0 0 0.08113,-0.0419 4.4780001,4.4780001 0 0 0 0.08062,-0.0439 4.4780001,4.4780001 0 0 0 0.07958,-0.0455 4.4780001,4.4780001 0 0 0 0.07855,-0.047 4.4780001,4.4780001 0 0 0 0.07751,-0.0481 4.4780001,4.4780001 0 0 0 0.07648,-0.0501 4.4780001,4.4780001 0 0 0 0.07545,-0.0517 4.4780001,4.4780001 0 0 0 0.07441,-0.0532 4.4780001,4.4780001 0 0 0 0.07338,-0.0548 4.4780001,4.4780001 0 0 0 0.07235,-0.0563 4.4780001,4.4780001 0 0 0 0.07131,-0.0579 4.4780001,4.4780001 0 0 0 0.06977,-0.0589 4.4780001,4.4780001 0 0 0 0.06873,-0.0605 4.4780001,4.4780001 0 0 0 0.06718,-0.062 4.4780001,4.4780001 0 0 0 0.06615,-0.0631 4.4780001,4.4780001 0 0 0 0.06511,-0.0646 4.4780001,4.4780001 0 0 0 0.06305,-0.0661 4.4780001,4.4780001 0 0 0 0.06253,-0.0672 4.4780001,4.4780001 0 0 0 0.06046,-0.0687 4.4780001,4.4780001 0 0 0 0.05943,-0.0698 4.4780001,4.4780001 0 0 0 0.05788,-0.0708 4.4780001,4.4780001 0 0 0 0.05633,-0.0718 4.4780001,4.4780001 0 0 0 0.05529,-0.0734 4.4780001,4.4780001 0 0 0 0.05323,-0.0744 4.4780001,4.4780001 0 0 0 0.05168,-0.0749 4.4780001,4.4780001 0 0 0 0.05064,-0.0765 4.4780001,4.4780001 0 0 0 0.04858,-0.0775 4.4780001,4.4780001 0 0 0 0.04754,-0.0786 4.4780001,4.4780001 0 0 0 0.04548,-0.0796 4.4780001,4.4780001 0 0 0 0.04392,-0.0801 4.4780001,4.4780001 0 0 0 0.04238,-0.0811 4.4780001,4.4780001 0 0 0 0.04031,-0.0822 4.4780001,4.4780001 0 0 0 0.03928,-0.0827 4.4780001,4.4780001 0 0 0 0.03721,-0.0837 4.4780001,4.4780001 0 0 0 0.03514,-0.0842 4.4780001,4.4780001 0 0 0 0.0341,-0.0853 4.4780001,4.4780001 0 0 0 0.03204,-0.0858 4.4780001,4.4780001 0 0 0 0.02997,-0.0863 4.4780001,4.4780001 0 0 0 0.02894,-0.0868 4.4780001,4.4780001 0 0 0 0.02636,-0.0873 4.4780001,4.4780001 0 0 0 0.0083,-0.0295 7.2052888,7.2052888 0 0 0 -5.304067,3.13004 z"
           style="fill:#69b19b;fill-opacity:1;stroke:none;stroke-width:1.36939;stroke-linecap:round;stroke-opacity:0.6"
           id="path884" />
        <path
           d="m 4.6125904,238.34207 a 6.0693932,6.0693932 0 0 0 -5.15214105,5.99963 6.0693932,6.0693932 0 0 0 6.02185605,6.06888 10.9905,10.9905 0 0 1 -0.06977,-0.0915 10.9905,10.9905 0 0 1 -0.08526,-0.11524 10.9905,10.9905 0 0 1 -0.08423,-0.11627 10.9905,10.9905 0 0 1 -0.08217,-0.11731 10.9905,10.9905 0 0 1 -0.08061,-0.11834 10.9905,10.9905 0 0 1 -0.07958,-0.11937 10.9905,10.9905 0 0 1 -0.07752,-0.12041 10.9905,10.9905 0 0 1 -0.07596,-0.12144 10.9905,10.9905 0 0 1 -0.07493,-0.12299 10.9905,10.9905 0 0 1 -0.07286,-0.12299 10.9905,10.9905 0 0 1 -0.07131,-0.12454 10.9905,10.9905 0 0 1 -0.06976,-0.12557 10.9905,10.9905 0 0 1 -0.0677,-0.12609 10.9905,10.9905 0 0 1 -0.06666,-0.12712 10.9905,10.9905 0 0 1 -0.06459,-0.12816 10.9905,10.9905 0 0 1 -0.06305,-0.12868 10.9905,10.9905 0 0 1 -0.0615,-0.1297 10.9905,10.9905 0 0 1 -0.05943,-0.13023 10.9905,10.9905 0 0 1 -0.05788,-0.13126 10.9905,10.9905 0 0 1 -0.05633,-0.13177 10.9905,10.9905 0 0 1 -0.05478,-0.13281 10.9905,10.9905 0 0 1 -0.05271,-0.13333 10.9905,10.9905 0 0 1 -0.05116,-0.13384 10.9905,10.9905 0 0 1 -0.04909,-0.13436 10.9905,10.9905 0 0 1 -0.04754,-0.13539 10.9905,10.9905 0 0 1 -0.04599,-0.13591 10.9905,10.9905 0 0 1 -0.04393,-0.13642 10.9905,10.9905 0 0 1 -0.04186,-0.13746 10.9905,10.9905 0 0 1 -0.04082,-0.13746 10.9905,10.9905 0 0 1 -0.03824,-0.13798 10.9905,10.9905 0 0 1 -0.03669,-0.13849 10.9905,10.9905 0 0 1 -0.03514,-0.13901 10.9905,10.9905 0 0 1 -0.03307,-0.13953 10.9905,10.9905 0 0 1 -0.03152,-0.14004 10.9905,10.9905 0 0 1 -0.02946,-0.14056 10.9905,10.9905 0 0 1 -0.02791,-0.14056 10.9905,10.9905 0 0 1 -0.02584,-0.14108 10.9905,10.9905 0 0 1 -0.02377,-0.14107 10.9905,10.9905 0 0 1 -0.02222,-0.1416 10.9905,10.9905 0 0 1 -0.02015,-0.14211 10.9905,10.9905 0 0 1 -0.01861,-0.14211 10.9905,10.9905 0 0 1 -0.01654,-0.14262 10.9905,10.9905 0 0 1 -0.01499,-0.14263 10.9905,10.9905 0 0 1 -0.01292,-0.14263 10.9905,10.9905 0 0 1 -0.01085,-0.14314 10.9905,10.9905 0 0 1 -0.0093,-0.14315 10.9905,10.9905 0 0 1 -0.0072,-0.14314 10.9905,10.9905 0 0 1 -0.0052,-0.14314 10.9905,10.9905 0 0 1 -0.0036,-0.14366 10.9905,10.9905 0 0 1 -0.0015,-0.14315 10.9905,10.9905 0 0 1 -5.19e-4,-0.0563 10.9905,10.9905 0 0 1 10e-4,-0.14366 10.9905,10.9905 0 0 1 0.0031,-0.14314 10.9905,10.9905 0 0 1 0.0047,-0.14366 10.9905,10.9905 0 0 1 0.0062,-0.14314 10.9905,10.9905 0 0 1 0.0088,-0.14315 10.9905,10.9905 0 0 1 0.0098,-0.14314 10.9905,10.9905 0 0 1 0.0124,-0.14263 10.9905,10.9905 0 0 1 0.01395,-0.14262 10.9905,10.9905 0 0 1 0.01602,-0.14263 10.9905,10.9905 0 0 1 0.01757,-0.14211 10.9905,10.9905 0 0 1 0.01964,-0.14211 10.9905,10.9905 0 0 1 0.02119,-0.14211 10.9905,10.9905 0 0 1 0.02325,-0.1416 10.9905,10.9905 0 0 1 0.02532,-0.14107 10.9905,10.9905 0 0 1 0.02687,-0.14056 10.9905,10.9905 0 0 1 0.02894,-0.14056 10.9905,10.9905 0 0 1 0.03049,-0.14004 10.9905,10.9905 0 0 1 0.03256,-0.13953 10.9905,10.9905 0 0 1 0.03411,-0.13953 10.9905,10.9905 0 0 1 0.03617,-0.13849 10.9905,10.9905 0 0 1 0.03824,-0.13849 10.9905,10.9905 0 0 1 0.03927,-0.13798 10.9905,10.9905 0 0 1 0.04186,-0.13694 10.9905,10.9905 0 0 1 0.04289,-0.13694 10.9905,10.9905 0 0 1 0.04548,-0.13591 10.9905,10.9905 0 0 1 0.04651,-0.13591 10.9905,10.9905 0 0 1 0.04857,-0.13488 10.9905,10.9905 0 0 1 0.05064,-0.13384 10.9905,10.9905 0 0 1 0.05219,-0.13384 10.9905,10.9905 0 0 1 0.05374,-0.13281 10.9905,10.9905 0 0 1 0.0553,-0.13229 10.9905,10.9905 0 0 1 0.05736,-0.13126 10.9905,10.9905 0 0 1 0.05891,-0.13074 10.9905,10.9905 0 0 1 0.06098,-0.13022 10.9905,10.9905 0 0 1 0.06253,-0.12868 10.9905,10.9905 0 0 1 0.06408,-0.12867 10.9905,10.9905 0 0 1 0.06563,-0.12713 10.9905,10.9905 0 0 1 0.06718,-0.12661 10.9905,10.9905 0 0 1 0.06925,-0.12557 10.9905,10.9905 0 0 1 0.01189,-0.0207 z"
           style="fill:#69b19b;fill-opacity:1;stroke:none;stroke-width:1.36939;stroke-linecap:round;stroke-opacity:0.6"
           id="path886" />
        <path
           d="m 7.7731204,238.7023 a 6.0693932,6.0693932 0 0 0 -1.955437,-0.42323 9.9905004,9.9905004 0 0 0 -0.0041,0.006 9.9905004,9.9905004 0 0 0 -0.0739,0.11524 9.9905004,9.9905004 0 0 0 -0.07183,0.11627 9.9905004,9.9905004 0 0 0 -0.07028,0.11731 9.9905004,9.9905004 0 0 0 -0.06873,0.11782 9.9905004,9.9905004 0 0 0 -0.06718,0.11937 9.9905004,9.9905004 0 0 0 -0.06563,0.11989 9.9905004,9.9905004 0 0 0 -0.06356,0.12092 9.9905004,9.9905004 0 0 0 -0.06201,0.12196 9.9905004,9.9905004 0 0 0 -0.06098,0.12247 9.9905004,9.9905004 0 0 0 -0.0584,0.12351 9.9905004,9.9905004 0 0 0 -0.05736,0.12402 9.9905004,9.9905004 0 0 0 -0.0553,0.12506 9.9905004,9.9905004 0 0 0 -0.05374,0.12557 9.9905004,9.9905004 0 0 0 -0.05219,0.12661 9.9905004,9.9905004 0 0 0 -0.05012,0.12713 9.9905004,9.9905004 0 0 0 -0.04858,0.12764 9.9905004,9.9905004 0 0 0 -0.04651,0.12867 9.9905004,9.9905004 0 0 0 -0.04496,0.12919 9.9905004,9.9905004 0 0 0 -0.04341,0.12971 9.9905004,9.9905004 0 0 0 -0.04134,0.13023 9.9905004,9.9905004 0 0 0 -0.03979,0.13074 9.9905004,9.9905004 0 0 0 -0.03772,0.13125 9.9905004,9.9905004 0 0 0 -0.03617,0.13178 9.9905004,9.9905004 0 0 0 -0.03411,0.13229 9.9905004,9.9905004 0 0 0 -0.03255,0.13281 9.9905004,9.9905004 0 0 0 -0.03049,0.13333 9.9905004,9.9905004 0 0 0 -0.02894,0.13384 9.9905004,9.9905004 0 0 0 -0.02687,0.13384 9.9905004,9.9905004 0 0 0 -0.02481,0.13436 9.9905004,9.9905004 0 0 0 -0.02325,0.13487 9.9905004,9.9905004 0 0 0 -0.02171,0.13488 9.9905004,9.9905004 0 0 0 -0.01963,0.13539 9.9905004,9.9905004 0 0 0 -0.01757,0.13539 9.9905004,9.9905004 0 0 0 -0.01602,0.13591 9.9905004,9.9905004 0 0 0 -0.01395,0.13591 9.9905004,9.9905004 0 0 0 -0.01188,0.13643 9.9905004,9.9905004 0 0 0 -0.01034,0.13642 9.9905004,9.9905004 0 0 0 -0.0088,0.13643 9.9905004,9.9905004 0 0 0 -0.0062,0.13642 9.9905004,9.9905004 0 0 0 -0.0047,0.13643 9.9905004,9.9905004 0 0 0 -0.0031,0.13694 9.9905004,9.9905004 0 0 0 -10e-4,0.13694 9.9905004,9.9905004 0 0 0 10e-4,0.10749 9.9905004,9.9905004 0 0 0 0.0021,0.13643 9.9905004,9.9905004 0 0 0 0.0041,0.13642 9.9905004,9.9905004 0 0 0 0.0062,0.13695 9.9905004,9.9905004 0 0 0 0.0083,0.13642 9.9905004,9.9905004 0 0 0 0.0098,0.13643 9.9905004,9.9905004 0 0 0 0.01189,0.13591 9.9905004,9.9905004 0 0 0 0.01344,0.13642 9.9905004,9.9905004 0 0 0 0.01551,0.1354 9.9905004,9.9905004 0 0 0 0.01757,0.1359 9.9905004,9.9905004 0 0 0 0.01912,0.1354 9.9905004,9.9905004 0 0 0 0.02067,0.13487 9.9905004,9.9905004 0 0 0 0.02325,0.13488 9.9905004,9.9905004 0 0 0 0.02429,0.13435 9.9905004,9.9905004 0 0 0 0.02687,0.13436 9.9905004,9.9905004 0 0 0 0.02842,0.13385 9.9905004,9.9905004 0 0 0 0.02997,0.13332 9.9905004,9.9905004 0 0 0 0.03204,0.13281 9.9905004,9.9905004 0 0 0 0.03411,0.13229 9.9905004,9.9905004 0 0 0 0.03565,0.13178 9.9905004,9.9905004 0 0 0 0.03721,0.13177 9.9905004,9.9905004 0 0 0 0.03928,0.13074 9.9905004,9.9905004 0 0 0 0.04134,0.13074 9.9905004,9.9905004 0 0 0 0.04289,0.12971 9.9905004,9.9905004 0 0 0 0.04444,0.12919 9.9905004,9.9905004 0 0 0 0.04651,0.12868 9.9905004,9.9905004 0 0 0 0.04806,0.12764 9.9905004,9.9905004 0 0 0 0.04961,0.12764 9.9905004,9.9905004 0 0 0 0.05167,0.12661 9.9905004,9.9905004 0 0 0 0.05323,0.12557 9.9905004,9.9905004 0 0 0 0.05529,0.12557 9.9905004,9.9905004 0 0 0 0.05685,0.12403 9.9905004,9.9905004 0 0 0 0.05839,0.1235 9.9905004,9.9905004 0 0 0 0.05994,0.12299 9.9905004,9.9905004 0 0 0 0.06201,0.12196 9.9905004,9.9905004 0 0 0 0.06356,0.12092 9.9905004,9.9905004 0 0 0 0.06511,0.12041 9.9905004,9.9905004 0 0 0 0.06666,0.11937 9.9905004,9.9905004 0 0 0 0.06821,0.11834 9.9905004,9.9905004 0 0 0 0.07028,0.1173 9.9905004,9.9905004 0 0 0 0.07131,0.11628 9.9905004,9.9905004 0 0 0 0.07338,0.11575 9.9905004,9.9905004 0 0 0 0.07493,0.11421 9.9905004,9.9905004 0 0 0 0.07596,0.11369 9.9905004,9.9905004 0 0 0 0.07803,0.11213 9.9905004,9.9905004 0 0 0 0.07958,0.11163 9.9905004,9.9905004 0 0 0 0.08062,0.11006 9.9905004,9.9905004 0 0 0 0.08268,0.10904 9.9905004,9.9905004 0 0 0 0.08371,0.10801 9.9905004,9.9905004 0 0 0 0.08527,0.10645 9.9905004,9.9905004 0 0 0 0.08682,0.10594 9.9905004,9.9905004 0 0 0 0.08837,0.10438 9.9905004,9.9905004 0 0 0 0.07131,0.0816 6.0693932,6.0693932 0 0 0 1.874821,-0.69918 8.1504993,8.1504993 0 0 1 -0.05064,-0.0486 8.1504993,8.1504993 0 0 1 -0.08785,-0.0868 8.1504993,8.1504993 0 0 1 -0.0863,-0.0884 8.1504993,8.1504993 0 0 1 -0.08475,-0.0894 8.1504993,8.1504993 0 0 1 -0.08371,-0.0909 8.1504993,8.1504993 0 0 1 -0.08268,-0.092 8.1504993,8.1504993 0 0 1 -0.08062,-0.093 8.1504993,8.1504993 0 0 1 -0.07958,-0.0946 8.1504993,8.1504993 0 0 1 -0.07803,-0.0956 8.1504993,8.1504993 0 0 1 -0.077,-0.0966 8.1504993,8.1504993 0 0 1 -0.07493,-0.0982 8.1504993,8.1504993 0 0 1 -0.0739,-0.0992 8.1504993,8.1504993 0 0 1 -0.07183,-0.10025 8.1504993,8.1504993 0 0 1 -0.0708,-0.10129 8.1504993,8.1504993 0 0 1 -0.06873,-0.10232 8.1504993,8.1504993 0 0 1 -0.0677,-0.10335 8.1504993,8.1504993 0 0 1 -0.06615,-0.10439 8.1504993,8.1504993 0 0 1 -0.06408,-0.10542 8.1504993,8.1504993 0 0 1 -0.06305,-0.10645 8.1504993,8.1504993 0 0 1 -0.06098,-0.10697 8.1504993,8.1504993 0 0 1 -0.05943,-0.10852 8.1504993,8.1504993 0 0 1 -0.05788,-0.10904 8.1504993,8.1504993 0 0 1 -0.05633,-0.11007 8.1504993,8.1504993 0 0 1 -0.05426,-0.11059 8.1504993,8.1504993 0 0 1 -0.05271,-0.11162 8.1504993,8.1504993 0 0 1 -0.05116,-0.11265 8.1504993,8.1504993 0 0 1 -0.04961,-0.11317 8.1504993,8.1504993 0 0 1 -0.04754,-0.11369 8.1504993,8.1504993 0 0 1 -0.04599,-0.11472 8.1504993,8.1504993 0 0 1 -0.04444,-0.11524 8.1504993,8.1504993 0 0 1 -0.04238,-0.11576 8.1504993,8.1504993 0 0 1 -0.04083,-0.11679 8.1504993,8.1504993 0 0 1 -0.03876,-0.1173 8.1504993,8.1504993 0 0 1 -0.03721,-0.11782 8.1504993,8.1504993 0 0 1 -0.03566,-0.11782 8.1504993,8.1504993 0 0 1 -0.03359,-0.11886 8.1504993,8.1504993 0 0 1 -0.03152,-0.11937 8.1504993,8.1504993 0 0 1 -0.02997,-0.11989 8.1504993,8.1504993 0 0 1 -0.02842,-0.12041 8.1504993,8.1504993 0 0 1 -0.02584,-0.12041 8.1504993,8.1504993 0 0 1 -0.02481,-0.12092 8.1504993,8.1504993 0 0 1 -0.02273,-0.12144 8.1504993,8.1504993 0 0 1 -0.02067,-0.12195 8.1504993,8.1504993 0 0 1 -0.01912,-0.12196 8.1504993,8.1504993 0 0 1 -0.01705,-0.12247 8.1504993,8.1504993 0 0 1 -0.01499,-0.12248 8.1504993,8.1504993 0 0 1 -0.01344,-0.12247 8.1504993,8.1504993 0 0 1 -0.01189,-0.12299 8.1504993,8.1504993 0 0 1 -0.0093,-0.12299 8.1504993,8.1504993 0 0 1 -0.0077,-0.12351 8.1504993,8.1504993 0 0 1 -0.0062,-0.1235 8.1504993,8.1504993 0 0 1 -0.0041,-0.12299 8.1504993,8.1504993 0 0 1 -0.0021,-0.12351 8.1504993,8.1504993 0 0 1 -5.16e-4,-0.0837 8.1504993,8.1504993 0 0 1 0.001,-0.1235 8.1504993,8.1504993 0 0 1 0.0026,-0.12351 8.1504993,8.1504993 0 0 1 0.0047,-0.12351 8.1504993,8.1504993 0 0 1 0.0067,-0.1235 8.1504993,8.1504993 0 0 1 0.0083,-0.12299 8.1504993,8.1504993 0 0 1 0.01034,-0.12299 8.1504993,8.1504993 0 0 1 0.0124,-0.12299 8.1504993,8.1504993 0 0 1 0.01395,-0.12248 8.1504993,8.1504993 0 0 1 0.0155,-0.12247 8.1504993,8.1504993 0 0 1 0.01809,-0.12247 8.1504993,8.1504993 0 0 1 0.01964,-0.12196 8.1504993,8.1504993 0 0 1 0.02119,-0.12144 8.1504993,8.1504993 0 0 1 0.02325,-0.12144 8.1504993,8.1504993 0 0 1 0.02532,-0.12092 8.1504993,8.1504993 0 0 1 0.02687,-0.1204 8.1504993,8.1504993 0 0 1 0.02842,-0.1199 8.1504993,8.1504993 0 0 1 0.03049,-0.11988 8.1504993,8.1504993 0 0 1 0.03256,-0.11938 8.1504993,8.1504993 0 0 1 0.03411,-0.11834 8.1504993,8.1504993 0 0 1 0.03617,-0.11834 8.1504993,8.1504993 0 0 1 0.03772,-0.1173 8.1504993,8.1504993 0 0 1 0.03927,-0.1173 8.1504993,8.1504993 0 0 1 0.04134,-0.11628 8.1504993,8.1504993 0 0 1 0.04289,-0.11575 8.1504993,8.1504993 0 0 1 0.04496,-0.11524 8.1504993,8.1504993 0 0 1 0.04651,-0.11421 8.1504993,8.1504993 0 0 1 0.04806,-0.11368 8.1504993,8.1504993 0 0 1 0.05013,-0.11266 8.1504993,8.1504993 0 0 1 0.05168,-0.11214 8.1504993,8.1504993 0 0 1 0.05323,-0.11162 8.1504993,8.1504993 0 0 1 0.0553,-0.11059 8.1504993,8.1504993 0 0 1 0.05684,-0.10955 8.1504993,8.1504993 0 0 1 0.05839,-0.10904 8.1504993,8.1504993 0 0 1 0.05994,-0.108 8.1504993,8.1504993 0 0 1 0.0615,-0.10697 8.1504993,8.1504993 0 0 1 0.06305,-0.10594 8.1504993,8.1504993 0 0 1 0.06511,-0.1049 8.1504993,8.1504993 0 0 1 0.06667,-0.10439 8.1504993,8.1504993 0 0 1 0.06769,-0.10283 8.1504993,8.1504993 0 0 1 0.06977,-0.10181 8.1504993,8.1504993 0 0 1 0.07079,-0.10128 8.1504993,8.1504993 0 0 1 0.07287,-0.0997 8.1504993,8.1504993 0 0 1 0.0739,-0.0987 8.1504993,8.1504993 0 0 1 0.05581,-0.0718 z"
           style="fill:#69b19b;fill-opacity:1;stroke:none;stroke-width:1.36939;stroke-linecap:round;stroke-opacity:0.6"
           id="path888" />
        <path
           d="m 9.9833204,240.21844 a 6.0693932,6.0693932 0 0 0 -1.295011,-1.05937 7.1504997,7.1504997 0 0 0 -0.05271,0.0646 7.1504997,7.1504997 0 0 0 -0.07183,0.0904 7.1504997,7.1504997 0 0 0 -0.07028,0.0915 7.1504997,7.1504997 0 0 0 -0.06925,0.093 7.1504997,7.1504997 0 0 0 -0.06718,0.094 7.1504997,7.1504997 0 0 0 -0.06615,0.0951 7.1504997,7.1504997 0 0 0 -0.06408,0.0961 7.1504997,7.1504997 0 0 0 -0.06305,0.0971 7.1504997,7.1504997 0 0 0 -0.06098,0.0977 7.1504997,7.1504997 0 0 0 -0.05994,0.0992 7.1504997,7.1504997 0 0 0 -0.05788,0.10025 7.1504997,7.1504997 0 0 0 -0.05633,0.10077 7.1504997,7.1504997 0 0 0 -0.05478,0.1018 7.1504997,7.1504997 0 0 0 -0.05323,0.10284 7.1504997,7.1504997 0 0 0 -0.05168,0.10387 7.1504997,7.1504997 0 0 0 -0.04961,0.10438 7.1504997,7.1504997 0 0 0 -0.04806,0.10491 7.1504997,7.1504997 0 0 0 -0.04651,0.10593 7.1504997,7.1504997 0 0 0 -0.04444,0.10697 7.1504997,7.1504997 0 0 0 -0.04289,0.10749 7.1504997,7.1504997 0 0 0 -0.04134,0.10801 7.1504997,7.1504997 0 0 0 -0.03927,0.10851 7.1504997,7.1504997 0 0 0 -0.03772,0.10956 7.1504997,7.1504997 0 0 0 -0.03566,0.11007 7.1504997,7.1504997 0 0 0 -0.0341,0.11007 7.1504997,7.1504997 0 0 0 -0.03256,0.11111 7.1504997,7.1504997 0 0 0 -0.03049,0.11162 7.1504997,7.1504997 0 0 0 -0.02894,0.11213 7.1504997,7.1504997 0 0 0 -0.02687,0.11266 7.1504997,7.1504997 0 0 0 -0.02481,0.11265 7.1504997,7.1504997 0 0 0 -0.02325,0.11369 7.1504997,7.1504997 0 0 0 -0.02119,0.11317 7.1504997,7.1504997 0 0 0 -0.01964,0.11421 7.1504997,7.1504997 0 0 0 -0.01757,0.1142 7.1504997,7.1504997 0 0 0 -0.01602,0.11472 7.1504997,7.1504997 0 0 0 -0.01395,0.11473 7.1504997,7.1504997 0 0 0 -0.0124,0.11523 7.1504997,7.1504997 0 0 0 -0.01033,0.11524 7.1504997,7.1504997 0 0 0 -0.0083,0.11524 7.1504997,7.1504997 0 0 0 -0.0067,0.11524 7.1504997,7.1504997 0 0 0 -0.0046,0.11575 7.1504997,7.1504997 0 0 0 -0.0026,0.11576 7.1504997,7.1504997 0 0 0 -10e-4,0.11575 7.1504997,7.1504997 0 0 0 0,0.0124 7.1504997,7.1504997 0 0 0 10e-4,0.11575 7.1504997,7.1504997 0 0 0 0.0031,0.11576 7.1504997,7.1504997 0 0 0 0.0052,0.11524 7.1504997,7.1504997 0 0 0 0.0067,0.11575 7.1504997,7.1504997 0 0 0 0.0083,0.11524 7.1504997,7.1504997 0 0 0 0.01085,0.11524 7.1504997,7.1504997 0 0 0 0.0124,0.11472 7.1504997,7.1504997 0 0 0 0.01395,0.11524 7.1504997,7.1504997 0 0 0 0.01602,0.1142 7.1504997,7.1504997 0 0 0 0.01809,0.11421 7.1504997,7.1504997 0 0 0 0.01964,0.1142 7.1504997,7.1504997 0 0 0 0.0217,0.11369 7.1504997,7.1504997 0 0 0 0.02325,0.11317 7.1504997,7.1504997 0 0 0 0.02532,0.11266 7.1504997,7.1504997 0 0 0 0.02687,0.11265 7.1504997,7.1504997 0 0 0 0.02894,0.11214 7.1504997,7.1504997 0 0 0 0.03101,0.11111 7.1504997,7.1504997 0 0 0 0.03256,0.1111 7.1504997,7.1504997 0 0 0 0.03411,0.11059 7.1504997,7.1504997 0 0 0 0.03617,0.11007 7.1504997,7.1504997 0 0 0 0.03772,0.10903 7.1504997,7.1504997 0 0 0 0.03979,0.10853 7.1504997,7.1504997 0 0 0 0.04134,0.108 7.1504997,7.1504997 0 0 0 0.04289,0.10749 7.1504997,7.1504997 0 0 0 0.04496,0.10645 7.1504997,7.1504997 0 0 0 0.04651,0.10593 7.1504997,7.1504997 0 0 0 0.04806,0.10543 7.1504997,7.1504997 0 0 0 0.05013,0.10438 7.1504997,7.1504997 0 0 0 0.05168,0.10336 7.1504997,7.1504997 0 0 0 0.05323,0.10232 7.1504997,7.1504997 0 0 0 0.05478,0.1018 7.1504997,7.1504997 0 0 0 0.05685,0.10128 7.1504997,7.1504997 0 0 0 0.05839,0.0997 7.1504997,7.1504997 0 0 0 0.05943,0.0992 7.1504997,7.1504997 0 0 0 0.06149,0.0977 7.1504997,7.1504997 0 0 0 0.06305,0.0971 7.1504997,7.1504997 0 0 0 0.06459,0.0961 7.1504997,7.1504997 0 0 0 0.06615,0.0946 7.1504997,7.1504997 0 0 0 0.0677,0.0941 7.1504997,7.1504997 0 0 0 0.06925,0.0925 7.1504997,7.1504997 0 0 0 0.07028,0.092 7.1504997,7.1504997 0 0 0 0.07235,0.0904 7.1504997,7.1504997 0 0 0 0.07338,0.0889 7.1504997,7.1504997 0 0 0 0.07493,0.0884 7.1504997,7.1504997 0 0 0 0.07648,0.0868 7.1504997,7.1504997 0 0 0 0.07803,0.0853 7.1504997,7.1504997 0 0 0 0.07906,0.0842 7.1504997,7.1504997 0 0 0 0.08062,0.0832 7.1504997,7.1504997 0 0 0 0.08165,0.0816 7.1504997,7.1504997 0 0 0 0.0832,0.0806 7.1504997,7.1504997 0 0 0 0.08475,0.0791 7.1504997,7.1504997 0 0 0 0.04393,0.0398 6.0693932,6.0693932 0 0 0 1.1291276,-1.23404 5.4780002,5.4780002 0 0 1 -0.02067,-0.0186 5.4780002,5.4780002 0 0 1 -0.07442,-0.0687 5.4780002,5.4780002 0 0 1 -0.07286,-0.0703 5.4780002,5.4780002 0 0 1 -0.07183,-0.0713 5.4780002,5.4780002 0 0 1 -0.07028,-0.0734 5.4780002,5.4780002 0 0 1 -0.06873,-0.0739 5.4780002,5.4780002 0 0 1 -0.06718,-0.0755 5.4780002,5.4780002 0 0 1 -0.06615,-0.0765 5.4780002,5.4780002 0 0 1 -0.06511,-0.078 5.4780002,5.4780002 0 0 1 -0.06305,-0.0791 5.4780002,5.4780002 0 0 1 -0.06149,-0.0801 5.4780002,5.4780002 0 0 1 -0.06046,-0.0816 5.4780002,5.4780002 0 0 1 -0.05891,-0.0822 5.4780002,5.4780002 0 0 1 -0.05684,-0.0837 5.4780002,5.4780002 0 0 1 -0.05581,-0.0848 5.4780002,5.4780002 0 0 1 -0.05426,-0.0853 5.4780002,5.4780002 0 0 1 -0.0522,-0.0868 5.4780002,5.4780002 0 0 1 -0.05116,-0.0873 5.4780002,5.4780002 0 0 1 -0.04909,-0.0884 5.4780002,5.4780002 0 0 1 -0.04754,-0.0894 5.4780002,5.4780002 0 0 1 -0.04599,-0.0904 5.4780002,5.4780002 0 0 1 -0.04444,-0.091 5.4780002,5.4780002 0 0 1 -0.04237,-0.092 5.4780002,5.4780002 0 0 1 -0.04082,-0.0925 5.4780002,5.4780002 0 0 1 -0.03928,-0.093 5.4780002,5.4780002 0 0 1 -0.03772,-0.0941 5.4780002,5.4780002 0 0 1 -0.03566,-0.0951 5.4780002,5.4780002 0 0 1 -0.03359,-0.0951 5.4780002,5.4780002 0 0 1 -0.03256,-0.0961 5.4780002,5.4780002 0 0 1 -0.02997,-0.0966 5.4780002,5.4780002 0 0 1 -0.02894,-0.0971 5.4780002,5.4780002 0 0 1 -0.02687,-0.0977 5.4780002,5.4780002 0 0 1 -0.02481,-0.0982 5.4780002,5.4780002 0 0 1 -0.02325,-0.0982 5.4780002,5.4780002 0 0 1 -0.02119,-0.0992 5.4780002,5.4780002 0 0 1 -0.01964,-0.0992 5.4780002,5.4780002 0 0 1 -0.01757,-0.0997 5.4780002,5.4780002 0 0 1 -0.01602,-0.0997 5.4780002,5.4780002 0 0 1 -0.01395,-0.10025 5.4780002,5.4780002 0 0 1 -0.01189,-0.10077 5.4780002,5.4780002 0 0 1 -0.01033,-0.10076 5.4780002,5.4780002 0 0 1 -0.0083,-0.10077 5.4780002,5.4780002 0 0 1 -0.0067,-0.10129 5.4780002,5.4780002 0 0 1 -0.0047,-0.10077 5.4780002,5.4780002 0 0 1 -0.0031,-0.10129 5.4780002,5.4780002 0 0 1 -5.16e-4,-0.10077 5.4780002,5.4780002 0 0 1 5.16e-4,-0.10128 5.4780002,5.4780002 0 0 1 0.0031,-0.10129 5.4780002,5.4780002 0 0 1 0.0047,-0.10128 5.4780002,5.4780002 0 0 1 0.0067,-0.10077 5.4780002,5.4780002 0 0 1 0.0083,-0.10129 5.4780002,5.4780002 0 0 1 0.01033,-0.10025 5.4780002,5.4780002 0 0 1 0.01189,-0.10077 5.4780002,5.4780002 0 0 1 0.01395,-0.10025 5.4780002,5.4780002 0 0 1 0.01602,-0.0997 5.4780002,5.4780002 0 0 1 0.01757,-0.0997 5.4780002,5.4780002 0 0 1 0.01964,-0.0997 5.4780002,5.4780002 0 0 1 0.02119,-0.0987 5.4780002,5.4780002 0 0 1 0.02325,-0.0987 5.4780002,5.4780002 0 0 1 0.02481,-0.0982 5.4780002,5.4780002 0 0 1 0.02687,-0.0977 5.4780002,5.4780002 0 0 1 0.02894,-0.0966 5.4780002,5.4780002 0 0 1 0.03049,-0.0966 5.4780002,5.4780002 0 0 1 0.03204,-0.0961 5.4780002,5.4780002 0 0 1 0.03359,-0.0956 5.4780002,5.4780002 0 0 1 0.03617,-0.0946 5.4780002,5.4780002 0 0 1 0.03721,-0.0941 5.4780002,5.4780002 0 0 1 0.03928,-0.0935 5.4780002,5.4780002 0 0 1 0.04082,-0.0925 5.4780002,5.4780002 0 0 1 0.04237,-0.092 5.4780002,5.4780002 0 0 1 0.04444,-0.0909 5.4780002,5.4780002 0 0 1 0.04599,-0.0899 5.4780002,5.4780002 0 0 1 0.04754,-0.0894 5.4780002,5.4780002 0 0 1 0.04909,-0.0884 5.4780002,5.4780002 0 0 1 0.05116,-0.0879 5.4780002,5.4780002 0 0 1 0.05271,-0.0863 5.4780002,5.4780002 0 0 1 0.05374,-0.0858 5.4780002,5.4780002 0 0 1 0.05581,-0.0842 5.4780002,5.4780002 0 0 1 0.05736,-0.0837 5.4780002,5.4780002 0 0 1 0.0584,-0.0822 5.4780002,5.4780002 0 0 1 0.06046,-0.0816 5.4780002,5.4780002 0 0 1 0.06149,-0.0801 5.4780002,5.4780002 0 0 1 0.06356,-0.0791 5.4780002,5.4780002 0 0 1 0.031,-0.0372 z"
           style="fill:#69b19b;fill-opacity:1;stroke:none;stroke-width:1.36939;stroke-linecap:round;stroke-opacity:0.6"
           id="path890" />
        <path
           d="m 10.61584,241.03007 a 4.4780001,4.4780001 0 0 0 -0.02584,0.0346 4.4780001,4.4780001 0 0 0 -0.05323,0.0744 4.4780001,4.4780001 0 0 0 -0.05219,0.0755 4.4780001,4.4780001 0 0 0 -0.05013,0.076 4.4780001,4.4780001 0 0 0 -0.04909,0.0775 4.4780001,4.4780001 0 0 0 -0.04703,0.0785 4.4780001,4.4780001 0 0 0 -0.04547,0.0796 4.4780001,4.4780001 0 0 0 -0.04393,0.0801 4.4780001,4.4780001 0 0 0 -0.04237,0.0811 4.4780001,4.4780001 0 0 0 -0.04083,0.0822 4.4780001,4.4780001 0 0 0 -0.03876,0.0827 4.4780001,4.4780001 0 0 0 -0.03721,0.0837 4.4780001,4.4780001 0 0 0 -0.03566,0.0842 4.4780001,4.4780001 0 0 0 -0.03359,0.0853 4.4780001,4.4780001 0 0 0 -0.03204,0.0858 4.4780001,4.4780001 0 0 0 -0.03049,0.0863 4.4780001,4.4780001 0 0 0 -0.02842,0.0868 4.4780001,4.4780001 0 0 0 -0.02687,0.0879 4.4780001,4.4780001 0 0 0 -0.0248,0.0878 4.4780001,4.4780001 0 0 0 -0.02325,0.0884 4.4780001,4.4780001 0 0 0 -0.02119,0.0894 4.4780001,4.4780001 0 0 0 -0.01964,0.0894 4.4780001,4.4780001 0 0 0 -0.01757,0.0894 4.4780001,4.4780001 0 0 0 -0.01602,0.0904 4.4780001,4.4780001 0 0 0 -0.01395,0.0904 4.4780001,4.4780001 0 0 0 -0.01189,0.0904 4.4780001,4.4780001 0 0 0 -0.01033,0.0909 4.4780001,4.4780001 0 0 0 -0.0083,0.0915 4.4780001,4.4780001 0 0 0 -0.0067,0.091 4.4780001,4.4780001 0 0 0 -0.0047,0.0915 4.4780001,4.4780001 0 0 0 -0.0026,0.0915 4.4780001,4.4780001 0 0 0 -10e-4,0.092 4.4780001,4.4780001 0 0 0 5.16e-4,0.0775 4.4780001,4.4780001 0 0 0 0.0026,0.0915 4.4780001,4.4780001 0 0 0 0.0041,0.0915 4.4780001,4.4780001 0 0 0 0.0067,0.0915 4.4780001,4.4780001 0 0 0 0.0078,0.0909 4.4780001,4.4780001 0 0 0 0.01033,0.091 4.4780001,4.4780001 0 0 0 0.01188,0.0909 4.4780001,4.4780001 0 0 0 0.01344,0.0904 4.4780001,4.4780001 0 0 0 0.01551,0.0899 4.4780001,4.4780001 0 0 0 0.01757,0.0899 4.4780001,4.4780001 0 0 0 0.01912,0.0894 4.4780001,4.4780001 0 0 0 0.02119,0.0894 4.4780001,4.4780001 0 0 0 0.02274,0.0884 4.4780001,4.4780001 0 0 0 0.0248,0.0884 4.4780001,4.4780001 0 0 0 0.02636,0.0873 4.4780001,4.4780001 0 0 0 0.02842,0.0873 4.4780001,4.4780001 0 0 0 0.02997,0.0863 4.4780001,4.4780001 0 0 0 0.03152,0.0858 4.4780001,4.4780001 0 0 0 0.03359,0.0853 4.4780001,4.4780001 0 0 0 0.03514,0.0847 4.4780001,4.4780001 0 0 0 0.03721,0.0837 4.4780001,4.4780001 0 0 0 0.03876,0.0827 4.4780001,4.4780001 0 0 0 0.04031,0.0822 4.4780001,4.4780001 0 0 0 0.04186,0.0811 4.4780001,4.4780001 0 0 0 0.04393,0.0806 4.4780001,4.4780001 0 0 0 0.04496,0.0796 4.4780001,4.4780001 0 0 0 0.04702,0.0786 4.4780001,4.4780001 0 0 0 0.04858,0.0775 4.4780001,4.4780001 0 0 0 0.05012,0.0765 4.4780001,4.4780001 0 0 0 0.05168,0.0755 4.4780001,4.4780001 0 0 0 0.05323,0.0749 4.4780001,4.4780001 0 0 0 0.05478,0.0734 4.4780001,4.4780001 0 0 0 0.05633,0.0718 4.4780001,4.4780001 0 0 0 0.05736,0.0713 4.4780001,4.4780001 0 0 0 0.05943,0.0698 4.4780001,4.4780001 0 0 0 0.06046,0.0687 4.4780001,4.4780001 0 0 0 0.06201,0.0672 4.4780001,4.4780001 0 0 0 0.06305,0.0661 4.4780001,4.4780001 0 0 0 0.04341,0.0439 6.0693932,6.0693932 0 0 0 0.560689,-2.54765 6.0693932,6.0693932 0 0 0 -0.983404,-3.31091 z"
           style="fill:#69b19b;fill-opacity:1;stroke:none;stroke-width:1.36939;stroke-linecap:round;stroke-opacity:0.6"
           id="path892" />
      </g>
      <g
         aria-label="FUS"
         id="text910"
         style="font-size:4.02502px;line-height:1.25;letter-spacing:0px;word-spacing:0px;stroke-width:0.0929394">
        <path
           d="m 47.719231,9.6661873 h 0.627903 V 8.4989315 H 49.50634 V 7.9756788 H 48.347134 V 7.3236256 h 1.376557 V 6.7963479 h -2.00446 z"
           style="font-weight:bold;font-family:Flama;-inkscape-font-specification:'Flama Bold'"
           id="path335" />
        <path
           d="m 51.249171,9.7144875 c 0.672178,0 1.16323,-0.3864019 1.16323,-1.0867554 V 6.7963479 H 51.792548 V 8.607607 c 0,0.3743269 -0.185151,0.5675278 -0.531302,0.5675278 -0.370302,0 -0.539353,-0.2294261 -0.539353,-0.5675278 V 6.7963479 H 50.09399 v 1.8676094 c 0,0.7043785 0.458852,1.0505302 1.155181,1.0505302 z"
           style="font-weight:bold;font-family:Flama;-inkscape-font-specification:'Flama Bold'"
           id="path337" />
        <path
           d="m 53.921787,9.7104625 c 0.611803,0 1.131031,-0.3300516 1.131031,-0.9056295 0,-0.4789774 -0.297852,-0.7043785 -0.672179,-0.796954 L 53.905687,7.8871284 c -0.217351,-0.060375 -0.402502,-0.1328257 -0.402502,-0.3179766 0,-0.2254011 0.205276,-0.3139516 0.426652,-0.3139516 0.249551,0 0.478978,0.084525 0.607778,0.2978515 L 54.988417,7.2592253 C 54.767041,6.8889234 54.441015,6.7480477 53.949962,6.7480477 c -0.595703,0 -1.062605,0.3501767 -1.062605,0.8895294 0,0.4830025 0.301876,0.6842535 0.684253,0.7808539 l 0.491053,0.1247757 c 0.201251,0.05635 0.358227,0.1368507 0.358227,0.3300516 0,0.2334512 -0.253577,0.3260267 -0.507153,0.3260267 -0.309926,0 -0.583628,-0.1569758 -0.708403,-0.398477 l -0.470928,0.2978514 c 0.209301,0.4347022 0.672179,0.6118031 1.187381,0.6118031 z"
           style="font-weight:bold;font-family:Flama;-inkscape-font-specification:'Flama Bold'"
           id="path339" />
      </g>
      <g
         aria-label="Instruments"
         id="text920"
         style="font-size:3.93685px;line-height:1.25;letter-spacing:0px;word-spacing:0px;stroke-width:0.0929394">
        <path
           d="m 56.336955,9.6091681 h 0.248022 V 6.802194 h -0.248022 z"
           style="font-weight:500;font-family:Flama;-inkscape-font-specification:'Flama Medium'"
           id="path312" />
        <path
           d="m 57.199127,9.6091681 h 0.228337 V 8.4359867 c 0,-0.3858113 0.295264,-0.629896 0.606275,-0.629896 0.267706,0 0.448801,0.1535372 0.448801,0.5196642 v 1.2834132 h 0.232274 V 8.21946 c 0,-0.342506 -0.200779,-0.6180855 -0.610212,-0.6180855 -0.275579,0 -0.539348,0.1417266 -0.677138,0.421243 h -0.0079 V 7.6486167 h -0.220463 z"
           style="font-weight:500;font-family:Flama;-inkscape-font-specification:'Flama Medium'"
           id="path314" />
        <path
           d="m 59.911619,9.6564103 c 0.370064,0 0.744065,-0.2086531 0.744065,-0.6220224 0,-0.28739 -0.192906,-0.4330535 -0.468485,-0.4960431 l -0.291327,-0.06299 c -0.28739,-0.06299 -0.444864,-0.1417266 -0.444864,-0.3464428 0,-0.2007793 0.173221,-0.3464428 0.433053,-0.3464428 0.232274,0 0.393685,0.06299 0.519664,0.1653477 l 0.153538,-0.129916 C 60.407662,7.6643641 60.179325,7.6013745 59.903745,7.6013745 c -0.433053,0 -0.681075,0.2480216 -0.681075,0.5669064 0,0.2755795 0.208653,0.4330535 0.555096,0.49998 l 0.216527,0.047242 c 0.271643,0.051179 0.421243,0.1259792 0.421243,0.366127 0,0.2519584 -0.255895,0.3897482 -0.507854,0.3897482 -0.259832,0 -0.444864,-0.078737 -0.610211,-0.236211 l -0.157474,0.1338529 c 0.181095,0.2086531 0.460611,0.2873901 0.771622,0.2873901 z"
           style="font-weight:500;font-family:Flama;-inkscape-font-specification:'Flama Medium'"
           id="path316" />
        <path
           d="m 61.714697,9.6445997 c 0.08267,0 0.240148,-0.011811 0.366127,-0.051179 V 9.3926413 c -0.09448,0.023621 -0.196842,0.043305 -0.2992,0.043305 -0.20078,0 -0.307075,-0.066926 -0.307075,-0.2795163 V 7.8415224 h 0.582654 V 7.6525536 H 61.474549 V 7.0344681 h -0.232274 v 0.6180855 h -0.366127 v 0.1889688 h 0.366127 v 1.3778975 c 0,0.3306954 0.228337,0.4251798 0.472422,0.4251798 z"
           style="font-weight:500;font-family:Flama;-inkscape-font-specification:'Flama Medium'"
           id="path318" />
        <path
           d="m 62.466638,9.6091681 h 0.232274 V 8.5186606 c 0.01181,-0.4448641 0.307075,-0.6810751 0.685012,-0.6810751 0.04724,0 0.114169,0 0.181095,0.011811 V 7.6328693 c -0.03937,-0.00787 -0.09055,-0.011811 -0.137789,-0.011811 -0.263769,0 -0.555096,0.094484 -0.728318,0.444864 h -0.0079 V 7.6486167 h -0.224401 z"
           style="font-weight:500;font-family:Flama;-inkscape-font-specification:'Flama Medium'"
           id="path320" />
        <path
           d="m 64.505926,9.6564103 c 0.275579,0 0.539348,-0.1377898 0.677138,-0.421243 h 0.0079 v 0.3740008 h 0.220463 V 7.6486167 H 65.183064 V 8.821798 c 0,0.3858113 -0.295264,0.629896 -0.602338,0.629896 -0.271643,0 -0.452738,-0.1535371 -0.452738,-0.5196642 V 7.6486167 h -0.232274 v 1.3897081 c 0,0.3425059 0.200779,0.6180855 0.610212,0.6180855 z"
           style="font-weight:500;font-family:Flama;-inkscape-font-specification:'Flama Medium'"
           id="path322" />
        <path
           d="m 65.990117,9.6091681 h 0.232275 V 8.4163025 c 0,-0.3858113 0.318884,-0.6102118 0.594464,-0.6102118 0.283453,0 0.440927,0.1692846 0.448801,0.5078537 v 1.2952237 h 0.228337 V 8.4044919 c 0.01181,-0.3464428 0.28739,-0.5984012 0.590528,-0.5984012 0.283453,0 0.452737,0.1653477 0.452737,0.5196642 v 1.2834132 h 0.228338 V 8.1997757 c 0,-0.3503796 -0.228338,-0.5984012 -0.610212,-0.5984012 -0.291327,0 -0.555096,0.1496003 -0.696822,0.4291167 h -0.0039 C 67.39951,7.8021539 67.222352,7.6013745 66.89953,7.6013745 c -0.283453,0 -0.543285,0.1417266 -0.681075,0.421243 h -0.0079 V 7.6486167 h -0.220464 z"
           style="font-weight:500;font-family:Flama;-inkscape-font-specification:'Flama Medium'"
           id="path324" />
        <path
           d="m 70.068694,9.6603471 c 0.259832,0 0.531474,-0.078737 0.712569,-0.3385691 L 70.608042,9.2115462 c -0.106295,0.129916 -0.271643,0.2519584 -0.523601,0.2519584 -0.377938,0 -0.598401,-0.2204636 -0.598401,-0.5669064 V 8.664324 h 1.334592 v -0.28739 c 0,-0.5039168 -0.318885,-0.7716226 -0.755875,-0.7716226 -0.468485,0 -0.818865,0.2992006 -0.818865,0.838549 v 0.4251798 c 0,0.5393485 0.342506,0.7913069 0.822802,0.7913069 z M 69.48604,8.4989763 V 8.3926814 c 0,-0.314948 0.200779,-0.5944644 0.559032,-0.5944644 0.377938,0 0.547223,0.2598321 0.547223,0.5669064 v 0.1338529 z"
           style="font-weight:500;font-family:Flama;-inkscape-font-specification:'Flama Medium'"
           id="path326" />
        <path
           d="m 71.304862,9.6091681 h 0.228337 V 8.4359867 c 0,-0.3858113 0.295264,-0.629896 0.606275,-0.629896 0.267706,0 0.448801,0.1535372 0.448801,0.5196642 v 1.2834132 h 0.232274 V 8.21946 c 0,-0.342506 -0.20078,-0.6180855 -0.610212,-0.6180855 -0.275579,0 -0.539348,0.1417266 -0.677138,0.421243 h -0.0079 V 7.6486167 h -0.220463 z"
           style="font-weight:500;font-family:Flama;-inkscape-font-specification:'Flama Medium'"
           id="path328" />
        <path
           d="m 74.017353,9.6445997 c 0.08267,0 0.240148,-0.011811 0.366127,-0.051179 V 9.3926413 c -0.09448,0.023621 -0.196842,0.043305 -0.2992,0.043305 -0.20078,0 -0.307075,-0.066926 -0.307075,-0.2795163 V 7.8415224 h 0.582654 V 7.6525536 H 73.777205 V 7.0344681 h -0.232274 v 0.6180855 h -0.366127 v 0.1889688 h 0.366127 v 1.3778975 c 0,0.3306954 0.228338,0.4251798 0.472422,0.4251798 z"
           style="font-weight:500;font-family:Flama;-inkscape-font-specification:'Flama Medium'"
           id="path330" />
        <path
           d="m 75.407065,9.6564103 c 0.370064,0 0.744064,-0.2086531 0.744064,-0.6220224 0,-0.28739 -0.192905,-0.4330535 -0.468485,-0.4960431 l -0.291327,-0.06299 c -0.28739,-0.06299 -0.444864,-0.1417266 -0.444864,-0.3464428 0,-0.2007793 0.173222,-0.3464428 0.433054,-0.3464428 0.232274,0 0.393685,0.06299 0.519664,0.1653477 l 0.153537,-0.129916 c -0.1496,-0.1535372 -0.377938,-0.2165268 -0.653517,-0.2165268 -0.433054,0 -0.681075,0.2480216 -0.681075,0.5669064 0,0.2755795 0.208653,0.4330535 0.555096,0.49998 l 0.216527,0.047242 c 0.271642,0.051179 0.421242,0.1259792 0.421242,0.366127 0,0.2519584 -0.255895,0.3897482 -0.507853,0.3897482 -0.259832,0 -0.444864,-0.078737 -0.610212,-0.236211 l -0.157474,0.1338529 c 0.181095,0.2086531 0.460612,0.2873901 0.771623,0.2873901 z"
           style="font-weight:500;font-family:Flama;-inkscape-font-specification:'Flama Medium'"
           id="path332" />
      </g>
    </g>
  </g>
</svg>
